<svg width="102" height="102" viewBox="0 0 102 102" fill="none" xmlns="http://www.w3.org/2000/svg">
<g clip-path="url(#clip0_14_11993)">
<path fill-rule="evenodd" clip-rule="evenodd" d="M51 102C57.6974 102 64.3292 100.681 70.5169 98.1179C76.7045 95.5549 82.3267 91.7982 87.0624 87.0624C91.7982 82.3267 95.5549 76.7045 98.1179 70.5169C100.681 64.3292 102 57.6974 102 51C102 44.3026 100.681 37.6707 98.1179 31.4831C95.5549 25.2955 91.7982 19.6733 87.0624 14.9376C82.3267 10.2018 76.7045 6.44513 70.5169 3.88214C64.3292 1.31915 57.6974 -9.97993e-08 51 0C37.474 2.01554e-07 24.5019 5.3732 14.9376 14.9376C5.3732 24.5019 0 37.474 0 51C0 64.526 5.3732 77.4981 14.9376 87.0624C24.5019 96.6268 37.474 102 51 102Z" fill="#F5F6FB"/>
<path d="M47.346 70.5057H23.347C21.4977 70.5057 20 72.0033 20 73.8518V77.5878H50.6908V73.8518C50.6908 72.0033 49.1932 70.5057 47.346 70.5057Z" fill="#83898D"/>
<path d="M45.9661 66.5716C45.9661 64.7233 44.4685 63.2256 42.6202 63.2256H28.0647C26.2165 63.2256 24.7188 64.7233 24.7188 66.5716V68.7341H45.9661V66.5716Z" fill="#83898D"/>
<path d="M36.4252 54.4838C42.9494 60.174 45.8356 61.4728 47.7875 59.7732C49.7396 58.0735 47.0788 56.6346 49.1602 54.2497L34.9264 41.8354C32.8463 44.2204 31.0588 41.781 29.6402 43.9457C28.2208 46.1103 29.9011 48.7945 36.4252 54.4838Z" fill="#83898D"/>
<path d="M65.0383 36.0435C67.1197 33.6575 68.9059 36.0991 70.3255 33.9333C71.7441 31.7685 70.0636 29.0853 63.5395 23.395C57.0143 17.7057 54.1292 16.4059 52.1762 18.1057C50.2241 19.8043 52.886 21.2432 50.8047 23.6291L65.0383 36.0435Z" fill="#83898D"/>
<path d="M63.6963 37.5849L49.4627 25.1697L36.2734 40.2949L50.507 52.7091L63.6963 37.5849Z" fill="#83898D"/>
<path d="M83.3108 61.4834C82.013 60.3503 80.2878 60.0232 78.7441 60.4561C79.6763 57.8638 76.6874 56.8194 73.2516 54.1609C68.9585 50.8395 61.7418 44.9696 60.6738 44.0374L56.4844 48.8425C57.5523 49.7714 64.3501 56.1256 68.2231 59.9258C71.3243 62.9682 72.7664 65.7871 75.2069 64.5117C74.9878 66.0991 75.5479 67.7646 76.8456 68.8968C78.8927 70.683 81.9993 70.4692 83.7856 68.4221C85.5697 66.3751 85.358 63.2687 83.3108 61.4834Z" fill="#83898D"/>
</g>
<defs>
<clipPath id="clip0_14_11993">
<rect width="102" height="102" fill="white"/>
</clipPath>
</defs>
</svg>
