<svg width="102" height="102" viewBox="0 0 102 102" fill="none" xmlns="http://www.w3.org/2000/svg">
<g clip-path="url(#clip0_14_11996)">
<path fill-rule="evenodd" clip-rule="evenodd" d="M51 102C57.6974 102 64.3292 100.681 70.5169 98.1179C76.7045 95.5549 82.3267 91.7982 87.0624 87.0624C91.7982 82.3267 95.5549 76.7045 98.1179 70.5169C100.681 64.3292 102 57.6974 102 51C102 44.3026 100.681 37.6707 98.1179 31.4831C95.5549 25.2955 91.7982 19.6733 87.0624 14.9376C82.3267 10.2018 76.7045 6.44513 70.5169 3.88214C64.3292 1.31915 57.6974 -9.97993e-08 51 0C37.474 2.01554e-07 24.5019 5.3732 14.9376 14.9376C5.3732 24.5019 0 37.474 0 51C0 64.526 5.3732 77.4981 14.9376 87.0624C24.5019 96.6268 37.474 102 51 102Z" fill="#F5F6FB"/>
<path d="M58.6432 34.9293L52.8896 42.4725L56.5729 33.6702C56.6644 33.2123 57.0304 32.9491 57.2935 32.9491C57.385 32.9491 57.4651 33.0406 57.6481 33.1208L58.1857 33.384L58.7233 33.6473C59.1923 33.9449 59.1008 34.3799 58.6432 34.9293ZM50.8421 43.1936L52.4549 30.5224C52.6265 29.6296 52.3634 29.0001 51.7343 29.0001H50.9222C50.7506 29.0001 49.9384 29.0001 49.9384 29.0001C49.3093 29.0001 49.0462 29.538 49.2178 30.5224L50.8421 43.1936ZM53.0841 56.9292C53.6217 58.1883 53.8047 59.0011 53.8047 60.1571V70.6649V72.1072C53.8047 72.5651 53.4501 73.0001 52.9125 73.0001H48.2455C47.7079 73.0001 47.3533 72.6451 47.3533 72.1072V70.6649V69.1425H22.4743V70.6649V72.1072C22.4743 72.5651 22.1197 73.0001 21.5821 73.0001H16.8922C16.3546 73.0001 16 72.6451 16 72.1072V70.6649V60.1571C16 58.9781 16.1716 58.0853 16.7206 56.9292L22.5543 44.7159C23.1835 43.2737 24.9793 42.1176 26.5922 42.1176H43.1096C44.7224 42.1176 46.5297 43.2966 47.2504 44.7159L53.0841 56.9292ZM21.2046 56.4027H48.4857L44.5394 47.9667C43.7273 46.3528 43.0181 45.9865 41.3137 45.9865H28.388C28.125 45.9865 27.9305 45.9865 27.7589 45.9865C26.5007 46.1582 25.8715 46.616 25.2539 47.9667L21.2046 56.4027ZM24.9793 62.5036C24.9793 60.8897 23.6296 59.6306 22.0167 59.6306C20.4039 59.6306 19.1456 60.8897 19.1456 62.5036C19.1456 64.1176 20.4039 65.4682 22.0167 65.4682C23.6296 65.4682 24.9793 64.129 24.9793 62.5036ZM50.6476 62.5036C50.6476 60.8897 49.2979 59.6306 47.685 59.6306C46.0722 59.6306 44.8139 60.8897 44.8139 62.5036C44.8139 64.1176 46.0722 65.4682 47.685 65.4682C49.2979 65.4797 50.6476 64.129 50.6476 62.5036ZM48.8632 43.2737L45.18 34.4714C45.0084 34.0136 44.7224 33.7503 44.4593 33.7503C44.3678 33.7503 44.2878 33.7503 44.1962 33.7503C44.1047 33.7503 44.1047 33.8419 44.0247 33.8419L43.487 34.1051L43.0295 34.46C42.572 34.7233 42.6749 35.1811 43.121 35.7191L48.8632 43.2737ZM85.7414 60.5234L83.0417 70.6763L82.6871 72.027C82.5956 72.4849 82.058 72.7481 81.6119 72.6566L77.1281 71.4776C76.6705 71.3859 76.4073 70.848 76.499 70.4016L76.8536 69.0509L77.3111 67.6086L55.1316 61.6794V59.974C55.1316 59.2527 55.0401 58.4515 54.8685 57.7304C56.0467 57.6388 57.1106 56.8375 57.4651 55.5671C57.9226 54.0446 56.9274 52.4308 55.3947 51.9729C54.4108 51.8012 53.4157 52.0645 52.695 52.6941L50.6246 48.3788C50.7162 48.2872 50.7962 48.1155 50.8877 48.0239L59.684 37.7794C60.4962 36.795 61.8458 36.2571 63.1041 36.1655C63.5616 36.1655 63.9163 36.1655 64.2823 36.2571L79.999 40.2976C81.6118 40.7555 83.0531 42.3694 83.3162 43.8918L85.8212 57.1925C86.1074 58.5432 86.0274 59.4589 85.7414 60.5234ZM81.8866 55.8647L80.1822 46.7076C79.8276 44.922 79.1985 44.3725 77.5857 43.9147L65.1061 40.4922C64.4769 40.3205 64.031 40.3205 63.5847 40.3205C62.8641 40.4121 62.235 40.8585 61.5143 41.6712L55.4061 48.7565L81.8866 55.8647ZM80.1822 58.7378C80.0106 58.6462 79.8276 58.6462 79.6447 58.6462C79.4616 58.6462 79.29 58.6462 79.1071 58.6462C77.9289 58.7378 76.9452 59.539 76.6821 60.8095C76.2245 62.3319 77.1396 63.9457 78.661 64.4036C80.1823 64.8615 81.7952 63.8657 82.2527 62.3318C82.6873 60.7867 81.715 59.1727 80.1822 58.7378Z" fill="#83898D"/>
</g>
<defs>
<clipPath id="clip0_14_11996">
<rect width="102" height="102" fill="white"/>
</clipPath>
</defs>
</svg>
