<svg width="102" height="102" viewBox="0 0 102 102" fill="none" xmlns="http://www.w3.org/2000/svg">
<g clip-path="url(#clip0_14_11995)">
<path fill-rule="evenodd" clip-rule="evenodd" d="M51 102C57.6974 102 64.3292 100.681 70.5169 98.1179C76.7045 95.5549 82.3267 91.7982 87.0624 87.0624C91.7982 82.3267 95.5549 76.7045 98.1179 70.5169C100.681 64.3292 102 57.6974 102 51C102 44.3026 100.681 37.6707 98.1179 31.4831C95.5549 25.2955 91.7982 19.6733 87.0624 14.9376C82.3267 10.2018 76.7045 6.44513 70.5169 3.88214C64.3292 1.31915 57.6974 -9.97993e-08 51 0C37.474 2.01554e-07 24.5019 5.3732 14.9376 14.9376C5.3732 24.5019 0 37.474 0 51C0 64.526 5.3732 77.4981 14.9376 87.0624C24.5019 96.6268 37.474 102 51 102Z" fill="#F5F6FB"/>
<g clip-path="url(#clip1_14_11995)">
<path d="M80.9899 41.2737V38.0404C80.9899 38.0404 74.5238 37.371 66.7196 40.3812C58.9154 43.3915 53.2297 42.6113 52.4493 41.8305C51.6689 41.0507 48.1015 37.5942 47.5436 37.148C46.9864 36.7026 45.8712 34.9187 44.6451 36.0334C44.4308 36.2285 44.2026 36.3411 43.972 36.4229L45.2162 33.8654C45.4175 33.4527 45.8359 33.1905 46.2951 33.1905H53.0066C53.6531 33.1905 53.6089 32.6662 53.6089 32.0192C53.6089 31.3721 53.653 30.8488 53.0066 30.8488H46.2951C44.9397 30.8488 43.7036 31.6222 43.1111 32.841L41.5712 36.0064C40.9153 35.5054 38.3993 33.7716 34.7783 33.5809V41.3843C34.7783 41.3843 37.4673 41.1435 39.0987 40.8654L37.2097 44.0458C34.6002 42.5817 31.5459 41.8416 28.3372 42.0815C25.8808 42.2638 23.5976 43.0028 21.6013 44.1621L22.3407 46.3802C23.9726 45.5304 25.7993 44.9895 27.7511 44.8444C30.9417 44.6064 33.6059 45.1028 35.8431 46.3468L33.6891 49.9724C32.2872 49.3328 30.7343 48.9664 29.0925 48.9664C22.9661 48.9663 18 53.9323 18 60.0587C18 66.1849 22.9661 71.1519 29.0928 71.1519C35.2189 71.1519 40.1855 66.1849 40.1855 60.0587C40.1855 56.5335 38.5359 53.3988 35.9725 51.3675L38.026 47.9101C40.1008 49.8048 41.7166 52.5732 42.973 56.2675C43.0153 56.3931 44.4715 57.6415 44.478 57.7737L44.663 57.3702C44.8532 60.9437 47.655 61.0069 47.655 61.0069C47.655 61.0069 54.9015 61.0069 58.1347 61.0069C62.1486 45.7329 78.3143 42.0535 80.9899 41.2737ZM35.7265 60.0587C35.7265 63.7223 32.7559 66.6924 29.0928 66.6924C25.4291 66.6924 22.4589 63.7223 22.4589 60.0587C22.4589 56.3959 25.4291 53.4248 29.0928 53.4248C29.9015 53.4248 30.6735 53.5772 31.3904 53.8421L29.0523 57.7773C27.809 57.7996 26.8067 58.8101 26.8067 60.0585C26.8067 61.3209 27.8303 62.3444 29.0928 62.3444C30.3553 62.3444 31.3783 61.3209 31.3783 60.0585C31.3783 59.8001 31.3257 59.5548 31.2463 59.3222L33.6615 55.2579C34.9313 56.4664 35.7265 58.1677 35.7265 60.0587ZM39.4224 45.5601L41.1403 42.6679C41.9124 44.597 42.79 47.6592 43.4741 50.5019C42.4696 48.5814 41.0827 46.9062 39.4224 45.5601Z" fill="#83898D"/>
<path d="M72.9132 48.9656C66.7869 48.9656 61.8203 53.9318 61.8203 60.058C61.8203 66.1843 66.7868 71.1513 72.9132 71.1513C79.0395 71.1513 84.006 66.1843 84.006 60.058C84.006 53.9316 79.0395 48.9656 72.9132 48.9656ZM72.9132 66.6918C69.2494 66.6918 66.2793 63.7217 66.2793 60.058C66.2793 56.3953 69.2494 53.4241 72.9132 53.4241C76.5765 53.4241 79.5466 56.3953 79.5466 60.058C79.5466 63.7217 76.5763 66.6918 72.9132 66.6918Z" fill="#83898D"/>
<path d="M72.9027 57.7728C71.6402 57.7728 70.6172 58.7952 70.6172 60.0578C70.6172 61.3201 71.6402 62.3437 72.9027 62.3437C74.1651 62.3437 75.1882 61.3201 75.1882 60.0578C75.1881 58.7952 74.1651 57.7728 72.9027 57.7728Z" fill="#83898D"/>
</g>
</g>
<defs>
<clipPath id="clip0_14_11995">
<rect width="102" height="102" fill="white"/>
</clipPath>
<clipPath id="clip1_14_11995">
<rect width="66" height="66" fill="white" transform="translate(18 18)"/>
</clipPath>
</defs>
</svg>
