<svg width="102" height="102" viewBox="0 0 102 102" fill="none" xmlns="http://www.w3.org/2000/svg">
<g clip-path="url(#clip0_14_11997)">
<path fill-rule="evenodd" clip-rule="evenodd" d="M51 102C57.6974 102 64.3292 100.681 70.5169 98.1179C76.7045 95.5549 82.3267 91.7982 87.0624 87.0624C91.7982 82.3267 95.5549 76.7045 98.1179 70.5169C100.681 64.3292 102 57.6974 102 51C102 44.3026 100.681 37.6707 98.1179 31.4831C95.5549 25.2955 91.7982 19.6733 87.0624 14.9376C82.3267 10.2018 76.7045 6.44513 70.5169 3.88214C64.3292 1.31915 57.6974 -9.97993e-08 51 0C37.474 2.01554e-07 24.5019 5.3732 14.9376 14.9376C5.3732 24.5019 0 37.474 0 51C0 64.526 5.3732 77.4981 14.9376 87.0624C24.5019 96.6268 37.474 102 51 102Z" fill="#F5F6FB"/>
<path d="M25.4684 61.3391C25.6293 60.3476 24.9559 59.4133 23.9642 59.2523C22.9726 59.0914 22.0382 59.7648 21.8773 60.7563C21.7164 61.7479 22.3898 62.6822 23.3815 62.8432C24.3731 63.0041 25.3075 62.3307 25.4684 61.3391Z" fill="#83898D"/>
<path d="M10.0312 61.3509V61.8818C10.0312 62.5094 10.5406 63.0187 11.168 63.0187H16.5885C17.4502 66.1223 20.2958 68.3993 23.6733 68.3993C27.0509 68.3993 29.8963 66.1223 30.7582 63.0187H70.7021C71.5638 66.1223 74.4093 68.3993 77.7869 68.3993C81.1645 68.3993 84.0099 66.1223 84.8717 63.0187H89.8374C90.4649 63.0187 90.9742 62.5094 90.9742 61.8818V61.3509C90.9742 60.7234 90.4649 60.2141 89.8374 60.2141H89.8271V53.5284C89.8271 53.2124 89.7828 52.8997 89.6964 52.5995L88.9813 50.1326C88.688 49.1231 87.9423 48.3614 87.0191 48.1284L83.0515 47.128C81.8931 46.8357 80.7938 46.3037 79.8092 45.5592L73.7112 40.9504C72.3742 39.9398 70.8304 39.3259 69.2241 39.1634C65.485 38.7881 61.7358 38.6006 57.9865 38.6006C53.5607 38.6006 49.1351 38.8621 44.7287 39.3851L41.7353 39.7398C40.4087 39.8979 39.1228 40.3503 37.9531 41.071L30.3977 45.7333C29.2563 46.4369 28.0035 46.8859 26.7097 47.0531L17.1034 48.2957C14.5831 48.622 12.5607 50.7774 12.1435 53.582L12.1377 53.6206L11.4021 54.5892C10.9849 55.1383 10.7564 55.8352 10.7564 56.556V59.3401C10.7564 59.6585 10.7996 59.9642 10.8803 60.2519C10.3928 60.3801 10.0312 60.8223 10.0312 61.3509ZM85.5264 51.7447H87.1055C87.2499 51.7447 87.3851 51.8163 87.4658 51.9358L87.6591 52.22C88.0787 52.8361 88.3026 53.5648 88.3026 54.3095V54.7187C88.3026 54.9598 88.1071 55.1553 87.8661 55.1553H86.4996C86.3189 55.1553 86.1564 55.0439 86.0926 54.8756L85.1195 52.3371C85.0092 52.0516 85.2206 51.7447 85.5264 51.7447ZM50.247 54.1037H47.4049C46.8717 54.1037 46.4386 53.6705 46.4386 53.1374C46.4386 52.6042 46.8717 52.1711 47.4049 52.1711H50.247C50.7801 52.1711 51.2133 52.6042 51.2133 53.1374C51.2133 53.6705 50.7801 54.1037 50.247 54.1037ZM71.5433 54.1037H68.7013C68.1681 54.1037 67.735 53.6705 67.735 53.1374C67.735 52.6042 68.1681 52.1711 68.7013 52.1711H71.5433C72.0776 52.1711 72.5096 52.6042 72.5096 53.1374C72.5096 53.6705 72.0776 54.1037 71.5433 54.1037ZM73.3941 60.0322C73.5078 59.5388 73.7022 59.0772 73.9637 58.66C74.3286 58.8112 74.7583 58.7578 75.0778 58.4974C75.1062 58.4735 75.1346 58.4485 75.1607 58.4224C75.188 58.3951 75.213 58.3666 75.2357 58.3381C75.496 58.0199 75.5506 57.5902 75.3994 57.2252C75.8166 56.9637 76.2782 56.7694 76.7716 56.6557C76.9364 57.0535 77.3286 57.3343 77.7868 57.3343C78.2449 57.3343 78.6371 57.0535 78.802 56.6557C79.2954 56.7694 79.7569 56.9637 80.1742 57.2252C80.0105 57.6232 80.0889 58.0983 80.4128 58.4224C80.7368 58.7452 81.2121 58.8247 81.61 58.6599C81.8715 59.0771 82.0658 59.5387 82.1795 60.0321C81.7816 60.1969 81.5008 60.5891 81.5008 61.0473C81.5008 61.5066 81.7816 61.8988 82.1806 62.0636C82.1033 62.3979 81.9896 62.7173 81.8429 63.0186C81.7725 63.1619 81.6928 63.3006 81.6087 63.4347C81.2108 63.271 80.7356 63.3505 80.4127 63.6735C80.0888 63.9974 80.0092 64.4727 80.174 64.8706C79.7568 65.1321 79.2952 65.3264 78.8019 65.4401C78.637 65.0423 78.2448 64.7616 77.7867 64.7616C77.3285 64.7616 76.9363 65.0423 76.7714 65.4401C76.2781 65.3264 75.8165 65.1321 75.3993 64.8706C75.5641 64.4727 75.4846 63.9975 75.1605 63.6735C74.8377 63.3505 74.3636 63.2711 73.9657 63.4347C73.8815 63.3006 73.802 63.1618 73.7316 63.0186C73.5848 62.7173 73.4701 62.3979 73.3927 62.0636C73.7918 61.8988 74.0726 61.5066 74.0726 61.0473C74.0728 60.5892 73.792 60.197 73.3941 60.0322ZM54.7909 48.3114L56.0608 42.4897C56.1779 41.9519 56.6634 41.5757 57.2124 41.595L68.0033 41.9907C68.3546 42.0031 68.6797 42.1782 68.8855 42.4635L72.7314 47.8249C73.3555 48.6957 72.7337 49.9064 71.6628 49.9064H56.0766C55.2376 49.9064 54.6123 49.1311 54.7909 48.3114ZM31.8904 48.1512L39.4458 43.4901C40.2665 42.9832 41.1499 42.6716 42.0708 42.5624L45.0629 42.2065C47.6754 41.8962 50.3152 41.6825 52.9538 41.5608C53.3368 41.5437 53.6233 41.9064 53.5221 42.2747L52.0068 47.7577C51.6555 49.0275 50.4993 49.9063 49.1817 49.9063H34.4301C33.4399 49.9063 32.5144 49.4095 31.9677 48.5829L31.7414 48.2408C31.7915 48.2113 31.8415 48.1818 31.8904 48.1512ZM19.2806 60.0322C19.309 59.9093 19.342 59.7878 19.3806 59.6684C19.4579 59.4296 19.5534 59.2001 19.6671 58.9807C19.724 58.8715 19.7853 58.7647 19.8501 58.6601C20.215 58.8113 20.6448 58.7579 20.9642 58.4975C20.9926 58.4736 21.0211 58.4486 21.0473 58.4225C21.0745 58.3952 21.0996 58.3667 21.1223 58.3383C21.3824 58.0204 21.437 57.5912 21.2864 57.2265C21.2953 57.221 21.3037 57.2149 21.3127 57.2094C21.3372 57.1943 21.3619 57.18 21.3866 57.1653C21.4589 57.1227 21.5318 57.0807 21.6066 57.0422C21.6889 56.9997 21.7726 56.9595 21.8576 56.9222C21.8578 56.9221 21.8581 56.922 21.8583 56.9219C21.8609 56.9207 21.8635 56.9197 21.866 56.9186C21.9484 56.8824 22.0321 56.8485 22.1169 56.8173C22.1175 56.817 22.1181 56.8168 22.1186 56.8167C22.1197 56.8163 22.1207 56.816 22.1218 56.8156C22.208 56.7839 22.2954 56.7547 22.384 56.7283C22.3846 56.7281 22.3852 56.728 22.3857 56.7279C22.4751 56.7012 22.5657 56.6772 22.6572 56.656C22.6574 56.656 22.6578 56.6559 22.658 56.6559C22.8229 57.0537 23.215 57.3345 23.6732 57.3345C24.1314 57.3345 24.5236 57.0537 24.6884 56.6559H24.6885C24.6889 56.6559 24.6891 56.656 24.6894 56.656C24.781 56.6773 24.8714 56.7012 24.9608 56.7279C24.9614 56.728 24.962 56.7282 24.9626 56.7283C25.0511 56.7547 25.1385 56.7839 25.2248 56.8156C25.2258 56.816 25.2269 56.8163 25.2279 56.8167C25.2285 56.8169 25.2291 56.8171 25.2297 56.8173C25.3145 56.8486 25.398 56.8825 25.4805 56.9186C25.4831 56.9197 25.4857 56.9207 25.4882 56.9219C25.4885 56.9219 25.4887 56.9221 25.4889 56.9222C25.574 56.9596 25.6577 56.9998 25.7399 57.0422C25.8151 57.081 25.8883 57.1231 25.9609 57.1659C25.9853 57.1803 26.0097 57.1946 26.0338 57.2094C26.0359 57.2107 26.0379 57.2121 26.04 57.2134C26.0468 57.2176 26.0533 57.2223 26.0601 57.2265C25.8972 57.6242 25.9757 58.0988 26.2993 58.4225C26.6233 58.7453 27.0985 58.8249 27.4963 58.66C27.5611 58.7646 27.6226 58.8714 27.6794 58.9806C27.7931 59.2 27.8886 59.4296 27.9658 59.6683C28.0044 59.7876 28.0374 59.9092 28.0659 60.0321C27.6679 60.1969 27.3871 60.5891 27.3871 61.0473C27.3871 61.5066 27.6679 61.8988 28.067 62.0636C28.0477 62.15 28.025 62.2353 28 62.3194C27.9773 62.3979 27.9511 62.4763 27.9238 62.5536C27.9101 62.5946 27.8942 62.6354 27.8795 62.6765C27.8488 62.7537 27.8169 62.8299 27.7828 62.905C27.7658 62.9436 27.7476 62.9812 27.7294 63.0187C27.6589 63.162 27.5793 63.3007 27.4951 63.4348C27.0972 63.2711 26.6221 63.3506 26.2992 63.6736C25.9752 63.9975 25.8956 64.4728 26.0605 64.8707C25.6433 65.1322 25.1817 65.3265 24.6883 65.4403C24.5235 65.0425 24.1313 64.7617 23.6731 64.7617C23.2149 64.7617 22.8227 65.0425 22.6579 65.4403C22.1645 65.3265 21.7029 65.1322 21.2857 64.8707C21.4506 64.4728 21.371 63.9977 21.047 63.6736C20.7241 63.3506 20.2501 63.2712 19.8522 63.4348C19.7681 63.3007 19.6885 63.1619 19.6181 63.0187C19.5999 62.9812 19.5817 62.9436 19.5646 62.905C19.5305 62.8299 19.4988 62.7537 19.468 62.6765C19.3907 62.4786 19.3282 62.274 19.2793 62.0636C19.6784 61.8988 19.9592 61.5066 19.9592 61.0473C19.9593 60.5892 19.6785 60.197 19.2806 60.0322ZM14.49 52.9155C14.8118 52.0902 15.3222 51.0967 16.0362 50.6043C16.1499 50.5259 16.2863 50.4873 16.4249 50.4873H18.004C18.5224 50.4873 18.8611 51.0296 18.6338 51.4957L18.0074 52.7803C17.9233 52.9543 17.7709 53.0851 17.5868 53.1418L15.3517 53.8432C14.7889 54.0194 14.2751 53.4658 14.49 52.9155Z" fill="#83898D"/>
<path d="M77.7877 62.8663C78.7927 62.8663 79.6066 62.0523 79.6066 61.0474C79.6066 60.0435 78.7927 59.2285 77.7877 59.2285C76.7827 59.2285 75.9688 60.0436 75.9688 61.0474C75.9688 62.0523 76.7827 62.8663 77.7877 62.8663Z" fill="#83898D"/>
</g>
<defs>
<clipPath id="clip0_14_11997">
<rect width="102" height="102" fill="white"/>
</clipPath>
</defs>
</svg>
