<svg width="102" height="102" viewBox="0 0 102 102" fill="none" xmlns="http://www.w3.org/2000/svg">
<g clip-path="url(#clip0_14_11994)">
<path fill-rule="evenodd" clip-rule="evenodd" d="M51 102C57.6974 102 64.3292 100.681 70.5169 98.1179C76.7045 95.5549 82.3267 91.7982 87.0624 87.0624C91.7982 82.3267 95.5549 76.7045 98.1179 70.5169C100.681 64.3292 102 57.6974 102 51C102 44.3026 100.681 37.6707 98.1179 31.4831C95.5549 25.2955 91.7982 19.6733 87.0624 14.9376C82.3267 10.2018 76.7045 6.44513 70.5169 3.88214C64.3292 1.31915 57.6974 -9.97993e-08 51 0C37.474 2.01554e-07 24.5019 5.3732 14.9376 14.9376C5.3732 24.5019 0 37.474 0 51C0 64.526 5.3732 77.4981 14.9376 87.0624C24.5019 96.6268 37.474 102 51 102Z" fill="#F5F6FB"/>
<path d="M81.2178 46.0742C80.2157 44.7439 76.4928 43.8279 74.9178 41.434C73.3428 39.04 72.0536 33.8557 68.045 31.8637C64.0364 29.8717 56.3747 29.3125 51.9997 29.3125C47.6247 29.3125 39.9684 29.8594 35.9543 31.8596C31.9403 33.8598 30.6565 39.04 29.0815 41.4299C27.5065 43.8197 23.7836 44.7439 22.7815 46.0742C21.7793 47.4045 21.0739 55.8141 21.5032 59.9375C21.9325 64.0609 22.7336 66.5 22.7336 66.5H34.4915C36.4165 66.5 37.0426 65.7768 40.9801 65.4062C45.3004 64.9961 49.5387 64.8594 51.9997 64.8594C54.4606 64.8594 58.8356 64.9961 63.1532 65.4062C67.0907 65.7795 67.7374 66.5 69.6418 66.5H81.2629C81.2629 66.5 82.0641 64.0609 82.4934 59.9375C82.9227 55.8141 82.2145 47.4045 81.2178 46.0742Z" fill="#83898D" stroke="#83898D" stroke-width="4.4375" stroke-linecap="round" stroke-linejoin="round"/>
<path d="M79.3438 66.5H71.6875V68.6875H79.3438V66.5Z" stroke="#83898D" stroke-width="4.4375" stroke-linecap="round" stroke-linejoin="round"/>
<path d="M32.3125 66.5H24.6562V68.6875H32.3125V66.5Z" stroke="#83898D" stroke-width="4.4375" stroke-linecap="round" stroke-linejoin="round"/>
<path d="M66.8298 56.268C66.0218 55.3342 63.3886 54.5549 59.9023 54.0326C56.4159 53.5104 55.1445 53.375 52.0273 53.375C48.9101 53.375 47.4923 53.5992 44.1509 54.0326C40.8095 54.466 38.3007 55.2371 37.2247 56.268C35.6101 57.832 37.9753 59.5875 39.832 59.8008C41.6312 60.0059 45.2282 59.9307 52.0423 59.9307C58.8564 59.9307 62.4534 60.0059 64.2527 59.8008C66.1066 59.5752 68.3023 57.9414 66.8298 56.268Z" fill="#F5F6FB"/>
<path d="M76.0036 47.2292C75.996 47.1206 75.9485 47.0187 75.8702 46.943C75.792 46.8673 75.6886 46.8232 75.5798 46.8191C73.9652 46.7617 72.3259 46.8765 69.4179 47.7337C67.9343 48.1669 66.5411 48.8644 65.3054 49.7927C64.9937 50.0361 65.1044 50.6937 65.4954 50.7634C67.8924 51.0445 70.3036 51.1861 72.7169 51.1872C74.1648 51.1872 75.6591 50.7771 75.9367 49.4865C76.0782 48.7423 76.1008 47.9805 76.0036 47.2292Z" fill="#F5F6FB"/>
<path d="M27.9966 47.2292C28.0043 47.1206 28.0518 47.0187 28.13 46.943C28.2083 46.8673 28.3117 46.8232 28.4205 46.8191C30.0351 46.7617 31.6744 46.8765 34.5824 47.7337C36.066 48.1669 37.4592 48.8644 38.6949 49.7927C39.0066 50.0361 38.8959 50.6937 38.5048 50.7634C36.1079 51.0445 33.6967 51.1861 31.2834 51.1872C29.8355 51.1872 28.3412 50.7771 28.0636 49.4865C27.9221 48.7423 27.8995 47.9805 27.9966 47.2292Z" fill="#F5F6FB"/>
<path d="M76.0625 40.25H78.25" stroke="#83898D" stroke-width="4.4375" stroke-linecap="round" stroke-linejoin="round"/>
<path d="M25.75 40.25H27.9375" stroke="#83898D" stroke-width="4.4375" stroke-linecap="round" stroke-linejoin="round"/>
<path d="M27.6641 42.8477C27.6641 42.8477 34.001 41.207 52 41.207C69.999 41.207 76.3359 42.8477 76.3359 42.8477" stroke="#83898D" stroke-width="4.4375" stroke-linecap="round" stroke-linejoin="round"/>
</g>
<defs>
<clipPath id="clip0_14_11994">
<rect width="102" height="102" fill="white"/>
</clipPath>
</defs>
</svg>
