<svg width="102" height="102" viewBox="0 0 102 102" fill="none" xmlns="http://www.w3.org/2000/svg">
<g clip-path="url(#clip0_5_986)">
<path fill-rule="evenodd" clip-rule="evenodd" d="M51 102C57.6974 102 64.3292 100.681 70.5169 98.1179C76.7045 95.5549 82.3267 91.7982 87.0624 87.0624C91.7982 82.3267 95.5549 76.7045 98.1179 70.5169C100.681 64.3292 102 57.6974 102 51C102 44.3026 100.681 37.6707 98.1179 31.4831C95.5549 25.2955 91.7982 19.6733 87.0624 14.9376C82.3267 10.2018 76.7045 6.44513 70.5169 3.88214C64.3292 1.31915 57.6974 -9.97993e-08 51 0C37.474 2.01554e-07 24.5019 5.3732 14.9376 14.9376C5.3732 24.5019 0 37.474 0 51C0 64.526 5.3732 77.4981 14.9376 87.0624C24.5019 96.6268 37.474 102 51 102Z" fill="#F5F6FB"/>
<path d="M75.1596 47.7348L69.9086 39.025C69.5243 38.3925 68.9841 37.8692 68.3398 37.5051C67.6955 37.141 66.9685 36.9482 66.2285 36.9452H62.1058V36.3331C62.1059 35.4491 61.9313 34.5738 61.5921 33.7575C61.2529 32.9412 60.7558 32.1999 60.1293 31.5762C58.8629 30.3142 57.1481 29.6053 55.3602 29.6046H30.8186C29.4829 29.5958 28.175 29.9857 27.0621 30.7245C25.9493 31.4634 25.0823 32.5174 24.572 33.7518C24.2344 34.5702 24.0639 35.4478 24.0705 36.3331V58.3548C24.0719 59.3891 24.448 60.3878 25.1291 61.1661C25.8102 61.9444 26.7503 62.4496 27.7752 62.5881C27.7637 62.8093 27.7637 63.0298 27.7752 63.2494C27.7665 64.292 27.9684 65.3257 28.3688 66.2884C28.7693 67.2512 29.3601 68.1231 30.1057 68.8519C30.8374 69.6135 31.7132 70.2219 32.6822 70.6418C33.6512 71.0618 34.694 71.2848 35.75 71.298C37.8577 71.2789 39.874 70.4353 41.3673 68.9478C42.8593 67.4627 43.707 65.4503 43.7273 63.3453C43.7399 63.1422 43.7399 62.9386 43.7273 62.7356H57.2703C57.2577 62.9386 57.2577 63.1422 57.2703 63.3453C57.2612 64.3883 57.463 65.4225 57.8634 66.3856C58.2639 67.3488 58.8549 68.2211 59.6008 68.9503C60.333 69.7124 61.2097 70.3212 62.1795 70.7411C63.1494 71.1611 64.1932 71.3838 65.25 71.3963C67.3577 71.3772 69.374 70.5336 70.8673 69.0461C72.3584 67.5607 73.2052 65.5482 73.2249 63.4436C73.2376 63.2398 73.2376 63.0353 73.2249 62.8315H75.0834C75.5683 62.8245 76.0315 62.6293 76.3751 62.2871C76.7187 61.9449 76.9158 61.4824 76.9247 60.9976V53.9274C76.9247 51.7395 76.3125 49.5958 75.1596 47.7348ZM40.0202 63.2469C40.0209 63.8089 39.9083 64.3652 39.6891 64.8827C39.4698 65.4001 39.1485 65.868 38.7443 66.2584C37.9264 67.0355 36.8414 67.4688 35.7132 67.4688C34.585 67.4688 33.4999 67.0355 32.682 66.2584C32.2834 65.8606 31.9677 65.3876 31.7534 64.8669C31.539 64.3461 31.4302 63.788 31.4332 63.2248C31.4217 62.6433 31.5392 62.0665 31.7774 61.5359C32.1019 60.7665 32.6599 60.1175 33.3704 59.675C34.097 59.1947 34.953 58.9477 35.8238 58.967C36.6547 58.967 37.466 59.2128 38.1543 59.675C38.8598 60.1249 39.4154 60.7714 39.7522 61.5359C39.9931 62.0645 40.121 62.6422 40.1185 63.2248L40.0202 63.2469ZM47.995 51.0143H35.7279C35.0785 51.0136 34.4557 50.756 33.9955 50.2977C33.5354 49.8394 33.2753 49.2177 33.272 48.5682C33.2714 48.2461 33.3344 47.927 33.4576 47.6293C33.5807 47.3316 33.7615 47.0612 33.9895 46.8337C34.2175 46.6061 34.4883 46.4259 34.7862 46.3034C35.0841 46.1808 35.4033 46.1184 35.7255 46.1197H47.995C48.6444 46.121 49.267 46.3792 49.7267 46.838C50.1863 47.2968 50.4458 47.9188 50.4484 48.5682C50.4487 48.8902 50.3855 49.209 50.2622 49.5064C50.1389 49.8038 49.9581 50.0739 49.7301 50.3012C49.5021 50.5285 49.2315 50.7085 48.9337 50.8309C48.6359 50.9532 48.3169 51.0156 47.995 51.0143ZM47.995 42.5969H35.7279C35.0785 42.5963 34.4557 42.3387 33.9955 41.8804C33.5354 41.4221 33.2753 40.8003 33.272 40.1509C33.2717 39.829 33.335 39.5101 33.4583 39.2127C33.5815 38.9153 33.7624 38.6452 33.9904 38.4179C34.2183 38.1906 34.489 38.0106 34.7868 37.8883C35.0845 37.7659 35.4035 37.7036 35.7255 37.7048H47.995C48.644 37.7061 49.2662 37.964 49.7258 38.4223C50.1854 38.8805 50.4452 39.5019 50.4484 40.1509C50.4487 40.4728 50.3855 40.7916 50.2622 41.089C50.1389 41.3864 49.9581 41.6565 49.7301 41.8838C49.5021 42.1111 49.2315 42.2911 48.9337 42.4135C48.6359 42.5359 48.3169 42.5982 47.995 42.5969ZM69.4661 63.2469C69.4665 63.8091 69.3535 64.3655 69.1338 64.8829C68.9142 65.4004 68.5924 65.8682 68.1877 66.2584C67.37 67.0348 66.2854 67.4677 65.1579 67.4677C64.0303 67.4677 62.9457 67.0348 62.128 66.2584C61.7289 65.8608 61.4128 65.3879 61.1979 64.8671C60.9831 64.3464 60.8739 63.7881 60.8767 63.2248C60.8662 62.3334 61.1515 61.4637 61.6879 60.7517C62.2927 59.9479 63.1605 59.3751 64.1413 59.1366H64.7559C64.8682 59.1098 64.9853 59.1098 65.0976 59.1366H65.5893C66.3342 59.2226 67.0446 59.5004 67.6494 59.9454C68.2566 60.3904 68.731 60.9902 69.0236 61.6834C69.267 62.212 69.3923 62.7897 69.3923 63.3699L69.4661 63.2469Z" fill="#9E9E9E"/>
<path d="M65.1528 58.9422C65.0396 58.9151 64.9217 58.9151 64.8086 58.9422H65.1528Z" fill="#9E9E9E"/>
</g>
<defs>
<clipPath id="clip0_5_986">
<rect width="102" height="102" fill="white"/>
</clipPath>
</defs>
</svg>
