<svg width="24" height="24" viewBox="0 0 24 24" fill="none" xmlns="http://www.w3.org/2000/svg">
<g clip-path="url(#clip0_5_1015)">
<path fill-rule="evenodd" clip-rule="evenodd" d="M12 24C13.5759 24 15.1363 23.6896 16.5922 23.0866C18.0481 22.4835 19.371 21.5996 20.4853 20.4853C21.5996 19.371 22.4835 18.0481 23.0866 16.5922C23.6896 15.1363 24 13.5759 24 12C24 10.4241 23.6896 8.86371 23.0866 7.4078C22.4835 5.95189 21.5996 4.62902 20.4853 3.51472C19.371 2.40042 18.0481 1.5165 16.5922 0.913445C15.1363 0.310389 13.5759 -2.34822e-08 12 0C8.8174 4.74244e-08 5.76516 1.26428 3.51472 3.51472C1.26428 5.76515 0 8.8174 0 12C0 15.1826 1.26428 18.2348 3.51472 20.4853C5.76516 22.7357 8.8174 24 12 24Z" fill="#F5F6FB"/>
<path d="M8.7335 14.5038C8.75172 14.5696 8.78271 14.6312 8.82473 14.6851C8.86675 14.7389 8.91896 14.784 8.97839 14.8176C9.03782 14.8513 9.1033 14.8729 9.17109 14.8813C9.23888 14.8897 9.30765 14.8846 9.37348 14.8664C9.43932 14.8482 9.50092 14.8172 9.55477 14.7752C9.60862 14.7332 9.65367 14.6809 9.68734 14.6215C9.72102 14.5621 9.74266 14.4966 9.75102 14.4288C9.75939 14.361 9.75433 14.2923 9.73612 14.2264L8.7335 14.5038ZM5.74786 7.19566C5.68177 7.17636 5.6125 7.17037 5.54408 7.17805C5.47565 7.18572 5.40944 7.20691 5.34927 7.24038C5.2891 7.27385 5.23617 7.31894 5.19356 7.37302C5.15095 7.42711 5.11951 7.48912 5.10106 7.55545C5.0826 7.62179 5.07751 7.69112 5.08606 7.75944C5.09462 7.82776 5.11665 7.8937 5.15089 7.95344C5.18513 8.01317 5.23089 8.06552 5.28552 8.10742C5.34015 8.14933 5.40256 8.17998 5.46912 8.19758L5.74786 7.19566ZM17.5268 14.8227C17.5945 14.8071 17.6584 14.778 17.7147 14.7372C17.771 14.6965 17.8185 14.6448 17.8545 14.5854C17.8905 14.5259 17.9142 14.4598 17.9242 14.3911C17.9343 14.3223 17.9304 14.2522 17.9129 14.185C17.8954 14.1177 17.8645 14.0546 17.8222 13.9995C17.7799 13.9444 17.727 13.8983 17.6666 13.8639C17.6062 13.8296 17.5395 13.8077 17.4704 13.7996C17.4014 13.7915 17.3315 13.7973 17.2647 13.8166L17.5268 14.8227ZM10.5994 16.0944C10.8143 16.8709 10.3428 17.6912 9.508 17.9082L9.7694 18.9143C11.1402 18.5586 11.9778 17.1795 11.602 15.817L10.5994 16.0944ZM9.508 17.9082C8.66763 18.1266 7.8245 17.6385 7.60817 16.855L6.60556 17.1323C6.97997 18.4879 8.40415 19.2693 9.7694 18.9143L9.508 17.9082ZM7.60817 16.855C7.39322 16.0784 7.86471 15.2582 8.69953 15.0411L8.43813 14.0357C7.06734 14.3914 6.22906 15.7699 6.60556 17.1323L7.60817 16.855ZM8.69953 15.0411C9.53989 14.8227 10.383 15.3109 10.5994 16.0944L11.602 15.817C11.2276 14.4615 9.80337 13.68 8.43813 14.0351L8.69953 15.0411ZM9.73612 14.2264L8.24399 8.82508L7.24137 9.10243L8.7335 14.5038L9.73612 14.2264ZM6.92936 7.52293L5.74786 7.19566L5.46912 8.19758L6.65132 8.52554L6.92936 7.52293ZM8.24399 8.82508C8.15583 8.51305 7.98843 8.22915 7.75806 8.00097C7.5277 7.77279 7.24221 7.60811 6.92936 7.52293L6.6527 8.52554C6.94739 8.60736 7.16649 8.83132 7.24137 9.10243L8.24399 8.82508ZM11.2324 16.4591L17.5268 14.8227L17.2654 13.8166L10.9703 15.453L11.2324 16.4591Z" fill="#83898D"/>
<path d="M10.1609 9.97286C9.82464 8.756 9.65684 8.14722 9.94251 7.66811C10.2275 7.1883 10.855 7.02535 12.11 6.69878L13.4412 6.35348C14.6962 6.0276 15.3237 5.86396 15.8181 6.14062C16.3125 6.41796 16.481 7.02605 16.8166 8.2436L17.1737 9.53466C17.5099 10.7515 17.6784 11.3603 17.3928 11.8401C17.1071 12.3192 16.4796 12.4829 15.2246 12.8087L13.8933 13.1547C12.6383 13.4806 12.0108 13.6436 11.5165 13.3669C11.0221 13.0896 10.8543 12.4815 10.518 11.2646L10.1609 9.97286Z" stroke="#83898D" stroke-width="1.04005"/>
</g>
<defs>
<clipPath id="clip0_5_1015">
<rect width="24" height="24" fill="white"/>
</clipPath>
</defs>
</svg>
