<svg width="62" height="25" viewBox="0 0 62 25" fill="none" xmlns="http://www.w3.org/2000/svg">
<path d="M47.7452 0C47.7452 1.31841 49.0286 3.28715 50.3278 4.93961C51.9983 7.07182 53.9944 8.93217 56.2829 10.3519C57.9988 11.4162 60.079 12.4379 61.7529 12.4379M61.7529 12.4379C60.079 12.4379 57.9971 13.4596 56.2829 14.5239C53.9944 15.9454 51.9983 17.8057 50.3278 19.9344C49.0286 21.5886 47.7452 23.5609 47.7452 24.8758M61.7529 12.4379L4.19617e-05 12.4379L61.7529 12.4379Z" fill="#E6F1FF"/>
<path d="M47.7452 0C47.7452 1.31841 49.0286 3.28715 50.3278 4.93961C51.9983 7.07182 53.9944 8.93217 56.2829 10.3519C57.9988 11.4162 60.079 12.4379 61.7529 12.4379M61.7529 12.4379C60.079 12.4379 57.9971 13.4596 56.2829 14.5239C53.9944 15.9454 51.9983 17.8057 50.3278 19.9344C49.0286 21.5886 47.7452 23.5609 47.7452 24.8758M61.7529 12.4379L4.02725e-05 12.4379" stroke="#55595C" stroke-width="3"/>
</svg>
