<svg width="24" height="24" viewBox="0 0 24 24" fill="none" xmlns="http://www.w3.org/2000/svg">
<g clip-path="url(#clip0_5_1012)">
<path fill-rule="evenodd" clip-rule="evenodd" d="M12 24C13.5759 24 15.1363 23.6896 16.5922 23.0866C18.0481 22.4835 19.371 21.5996 20.4853 20.4853C21.5996 19.371 22.4835 18.0481 23.0866 16.5922C23.6896 15.1363 24 13.5759 24 12C24 10.4241 23.6896 8.86371 23.0866 7.4078C22.4835 5.95189 21.5996 4.62902 20.4853 3.51472C19.371 2.40042 18.0481 1.5165 16.5922 0.913445C15.1363 0.310389 13.5759 -2.34822e-08 12 0C8.8174 4.74244e-08 5.76516 1.26428 3.51472 3.51472C1.26428 5.76515 0 8.8174 0 12C0 15.1826 1.26428 18.2348 3.51472 20.4853C5.76516 22.7357 8.8174 24 12 24Z" fill="#F5F6FB"/>
<path d="M7.56544 9.93008C7.72121 9.77342 7.97502 9.77271 8.13167 9.92847C8.28833 10.0842 8.28904 10.3381 8.13328 10.4947L7.27687 11.3616L16.5328 11.3355L15.6651 10.4784C15.5088 10.3226 15.5086 10.0694 15.6642 9.91282C15.8199 9.75637 16.0724 9.75581 16.2291 9.91122L17.7823 11.45C17.9388 11.6058 17.9395 11.8582 17.7839 12.0149L16.2451 13.5681C16.0893 13.7243 15.8368 13.7252 15.6802 13.5697C15.5237 13.414 15.5225 13.1608 15.6779 13.0041L16.535 12.1365L7.27914 12.1627L8.14608 13.0191C8.30273 13.1748 8.30345 13.4287 8.14768 13.5853C7.99191 13.742 7.73809 13.7427 7.58144 13.5869L6.02894 12.0488C5.87229 11.893 5.87157 11.6392 6.02734 11.4826L7.56544 9.93008Z" fill="#83898D"/>
<path d="M5.90622 5.60214C5.6853 5.60218 5.50626 5.78131 5.5063 6.00222L5.50709 9.60222C5.50714 9.82314 5.68626 10.0022 5.90718 10.0021C6.12809 10.0021 6.30714 9.82296 6.30709 9.60205L6.30639 6.40205L9.50639 6.40135C9.7273 6.4013 9.90635 6.22218 9.9063 6.00126C9.90626 5.78035 9.72713 5.6013 9.50622 5.60135L5.90622 5.60214ZM17.9064 18.3969C18.1273 18.3968 18.3063 18.2177 18.3063 17.9968L18.3055 14.3968C18.3054 14.1759 18.1263 13.9968 17.9054 13.9969C17.6845 13.9969 17.5054 14.176 17.5055 14.397L17.5062 17.597L14.3062 17.5977C14.0853 17.5977 13.9062 17.7768 13.9063 17.9977C13.9063 18.2187 14.0854 18.3977 14.3064 18.3977L17.9064 18.3969ZM5.9063 6.00214L5.62352 6.28504L11.6235 12.2824L11.9063 11.9995L12.1891 11.7166L6.18908 5.71923L5.9063 6.00214ZM11.9063 11.9995L11.6235 12.2824L17.6235 18.2798L17.9063 17.9969L18.189 17.714L12.1891 11.7166L11.9063 11.9995Z" fill="#83898D"/>
<path d="M13.7242 7.40919C13.8809 7.56496 13.8816 7.81877 13.7258 7.97542C13.5701 8.13208 13.3162 8.13279 13.1596 7.97703L12.2926 7.12062L12.3188 16.3765L13.1759 15.5089C13.3317 15.3525 13.5849 15.3523 13.7415 15.508C13.8979 15.6636 13.8985 15.9162 13.7431 16.0728L12.2043 17.626C12.0485 17.7825 11.7961 17.7833 11.6394 17.6276L10.0862 16.0888C9.92995 15.9331 9.92907 15.6805 10.0846 15.524C10.2403 15.3674 10.4935 15.3662 10.6502 15.5217L11.5178 16.3788L11.4916 7.12289L10.6352 7.98983C10.4795 8.14648 10.2256 8.1472 10.069 7.99143C9.91234 7.83566 9.91162 7.58184 10.0674 7.42519L11.6055 5.87269C11.7613 5.71604 12.0151 5.71532 12.1717 5.87109L13.7242 7.40919Z" fill="#83898D"/>
<path d="M18.3023 5.99991C18.3023 5.779 18.1232 5.59995 17.9023 5.6L14.3023 5.60078C14.0813 5.60083 13.9023 5.77996 13.9023 6.00087C13.9024 6.22179 14.0815 6.40083 14.3024 6.40078L17.5024 6.40009L17.5031 9.60009C17.5032 9.821 17.6823 10 17.9032 10C18.1241 9.99995 18.3032 9.82083 18.3031 9.59991L18.3023 5.99991ZM5.50761 18.0001C5.50766 18.221 5.68678 18.4 5.9077 18.4L9.5077 18.3992C9.72861 18.3991 9.90766 18.22 9.90761 17.9991C9.90756 17.7782 9.72844 17.5991 9.50752 17.5992L6.30752 17.5999L6.30683 14.3999C6.30678 14.179 6.12765 13.9999 5.90674 14C5.68582 14 5.50678 14.1791 5.50683 14.4001L5.50761 18.0001ZM17.9023 6L17.6194 5.71722L11.6221 11.7172L11.905 12L12.1879 12.2828L18.1852 6.28278L17.9023 6ZM11.905 12L11.6221 11.7172L5.62471 17.7172L5.90761 18L6.19051 18.2827L12.1879 12.2828L11.905 12Z" fill="#83898D"/>
</g>
<defs>
<clipPath id="clip0_5_1012">
<rect width="24" height="24" fill="white"/>
</clipPath>
</defs>
</svg>
