<svg width="45" height="45" viewBox="0 0 45 45" fill="none" xmlns="http://www.w3.org/2000/svg">
<path d="M24.375 35.625C24.375 29.4188 29.4188 24.375 35.625 24.375C37.6875 24.375 39.6 24.9375 41.25 25.8938V11.25C41.25 10.2554 40.8549 9.30161 40.1516 8.59835C39.4484 7.89509 38.4946 7.5 37.5 7.5H7.5C5.41875 7.5 3.75 9.16875 3.75 11.25V33.75C3.75 34.7446 4.14509 35.6984 4.84835 36.4016C5.55161 37.1049 6.50544 37.5 7.5 37.5H24.5438C24.45 36.8813 24.375 36.2625 24.375 35.625ZM7.5 15V11.25L22.5 20.625L37.5 11.25V15L22.5 24.375L7.5 15ZM37.5 41.25V37.5H30V33.75H37.5V30L43.125 35.625L37.5 41.25Z" fill="#FECC00"/>
<path d="M37.5 41.25V37.5H30V33.75H37.5V30L43.125 35.625L37.5 41.25Z" fill="#55595C"/>
</svg>
