<svg width="45" height="45" viewBox="0 0 45 45" fill="none" xmlns="http://www.w3.org/2000/svg">
<path fill-rule="evenodd" clip-rule="evenodd" d="M22.04 39.2034L22.0438 39.2016L22.0531 39.195L22.0813 39.1734L22.1919 39.0938C22.2869 39.0244 22.4213 38.9231 22.595 38.79C22.94 38.5256 23.4294 38.1366 24.0134 37.6369C25.5466 36.3264 26.9803 34.9037 28.3025 33.3806C31.4038 29.7937 34.625 24.675 34.625 18.8212C34.625 15.3244 33.2431 11.9681 30.7831 9.49313C29.5673 8.2681 28.1211 7.29566 26.5279 6.6318C24.9347 5.96794 23.226 5.62578 21.5 5.625C19.7741 5.62565 18.0654 5.96767 16.4722 6.63137C14.879 7.29506 13.4328 8.26733 12.2169 9.49219C9.75472 11.973 8.37365 15.3269 8.375 18.8222C8.375 24.675 11.5963 29.7937 14.6975 33.3806C16.0197 34.9037 17.4534 36.3264 18.9866 37.6369C19.5716 38.1366 20.06 38.5256 20.405 38.79C20.5742 38.9204 20.7452 39.0485 20.9178 39.1744L20.9478 39.195L20.9563 39.2016L20.96 39.2034C21.2834 39.4313 21.7166 39.4313 22.04 39.2034ZM26.1875 18.75C26.1875 19.9932 25.6936 21.1855 24.8146 22.0646C23.9355 22.9436 22.7432 23.4375 21.5 23.4375C20.2568 23.4375 19.0645 22.9436 18.1854 22.0646C17.3064 21.1855 16.8125 19.9932 16.8125 18.75C16.8125 17.5068 17.3064 16.3145 18.1854 15.4354C19.0645 14.5564 20.2568 14.0625 21.5 14.0625C22.7432 14.0625 23.9355 14.5564 24.8146 15.4354C25.6936 16.3145 26.1875 17.5068 26.1875 18.75Z" fill="#FECC00"/>
<path d="M37.5 41.75V38H30V34.25H37.5V30.5L43.125 36.125L37.5 41.75Z" fill="#55595C"/>
</svg>
