<svg width="25" height="25" viewBox="0 0 25 25" fill="none" xmlns="http://www.w3.org/2000/svg">
<path d="M12.0988 2.99988C14.8158 2.99988 15.1548 3.00988 16.2208 3.05988C17.2858 3.10988 18.0108 3.27688 18.6488 3.52488C19.3088 3.77888 19.8648 4.12288 20.4208 4.67788C20.9293 5.17777 21.3228 5.78247 21.5738 6.44988C21.8208 7.08688 21.9888 7.81288 22.0388 8.87788C22.0858 9.94388 22.0988 10.2829 22.0988 12.9999C22.0988 15.7169 22.0888 16.0559 22.0388 17.1219C21.9888 18.1869 21.8208 18.9119 21.5738 19.5499C21.3235 20.2177 20.9299 20.8225 20.4208 21.3219C19.9208 21.8302 19.3161 22.2236 18.6488 22.4749C18.0118 22.7219 17.2858 22.8899 16.2208 22.9399C15.1548 22.9869 14.8158 22.9999 12.0988 22.9999C9.38182 22.9999 9.04282 22.9899 7.97682 22.9399C6.91182 22.8899 6.18682 22.7219 5.54882 22.4749C4.88114 22.2244 4.27634 21.8308 3.77682 21.3219C3.26822 20.8221 2.87475 20.2173 2.62382 19.5499C2.37582 18.9129 2.20882 18.1869 2.15882 17.1219C2.11182 16.0559 2.09882 15.7169 2.09882 12.9999C2.09882 10.2829 2.10882 9.94388 2.15882 8.87788C2.20882 7.81188 2.37582 7.08788 2.62382 6.44988C2.87405 5.78206 3.26762 5.1772 3.77682 4.67788C4.27649 4.16911 4.88124 3.77561 5.54882 3.52488C6.18682 3.27688 6.91082 3.10988 7.97682 3.05988C9.04282 3.01288 9.38182 2.99988 12.0988 2.99988ZM12.0988 7.99988C10.7727 7.99988 9.50096 8.52666 8.56328 9.46434C7.6256 10.402 7.09882 11.6738 7.09882 12.9999C7.09882 14.326 7.6256 15.5977 8.56328 16.5354C9.50096 17.4731 10.7727 17.9999 12.0988 17.9999C13.4249 17.9999 14.6967 17.4731 15.6343 16.5354C16.572 15.5977 17.0988 14.326 17.0988 12.9999C17.0988 11.6738 16.572 10.402 15.6343 9.46434C14.6967 8.52666 13.4249 7.99988 12.0988 7.99988ZM18.5988 7.74988C18.5988 7.41836 18.4671 7.10042 18.2327 6.86599C17.9983 6.63157 17.6803 6.49988 17.3488 6.49988C17.0173 6.49988 16.6994 6.63157 16.4649 6.86599C16.2305 7.10042 16.0988 7.41836 16.0988 7.74988C16.0988 8.0814 16.2305 8.39934 16.4649 8.63376C16.6994 8.86818 17.0173 8.99988 17.3488 8.99988C17.6803 8.99988 17.9983 8.86818 18.2327 8.63376C18.4671 8.39934 18.5988 8.0814 18.5988 7.74988ZM12.0988 9.99988C12.8945 9.99988 13.6575 10.3159 14.2201 10.8786C14.7827 11.4412 15.0988 12.2042 15.0988 12.9999C15.0988 13.7955 14.7827 14.5586 14.2201 15.1212C13.6575 15.6838 12.8945 15.9999 12.0988 15.9999C11.3032 15.9999 10.5401 15.6838 9.97749 15.1212C9.41489 14.5586 9.09882 13.7955 9.09882 12.9999C9.09882 12.2042 9.41489 11.4412 9.97749 10.8786C10.5401 10.3159 11.3032 9.99988 12.0988 9.99988Z" fill="#83898D"/>
</svg>
