<svg width="21" height="21" viewBox="0 0 21 21" fill="none" xmlns="http://www.w3.org/2000/svg">
<path d="M2.41131 18.0111C2.28212 17.9666 2.17004 17.8829 2.0907 17.7717C2.01137 17.6604 1.96873 17.5272 1.96875 17.3906C1.96875 14.3923 2.57086 11.9946 3.75908 10.2633C5.19463 8.17149 7.4591 7.0452 10.5 6.90533V3.60932C10.5 3.48082 10.5377 3.35515 10.6085 3.2479C10.6793 3.14065 10.78 3.05654 10.8982 3.006C11.0163 2.95547 11.1467 2.94073 11.2731 2.96362C11.3996 2.98651 11.5165 3.04602 11.6095 3.13477L18.8282 10.0254C18.8924 10.0867 18.9434 10.1603 18.9783 10.2419C19.0132 10.3234 19.0312 10.4112 19.0312 10.4999C19.0312 10.5887 19.0132 10.6764 18.9783 10.758C18.9434 10.8396 18.8924 10.9132 18.8282 10.9745L11.6095 17.8651C11.5165 17.9539 11.3996 18.0134 11.2731 18.0363C11.1467 18.0592 11.0163 18.0444 10.8982 17.9939C10.78 17.9433 10.6793 17.8592 10.6085 17.752C10.5377 17.6447 10.5 17.5191 10.5 17.3906V14.1188C8.6543 14.1745 7.25976 14.4735 6.14947 15.0473C4.94976 15.6675 4.07982 16.594 3.14221 17.7954C3.05809 17.9031 2.94245 17.9819 2.81143 18.0207C2.6804 18.0595 2.54052 18.0565 2.41131 18.012V18.0111Z" fill="#83898D"/>
</svg>
