<svg width="25" height="25" viewBox="0 0 25 25" fill="none" xmlns="http://www.w3.org/2000/svg">
<path fill-rule="evenodd" clip-rule="evenodd" d="M18.8683 2.99988C19.7523 2.99988 20.6002 3.35107 21.2253 3.97619C21.8504 4.60131 22.2016 5.44916 22.2016 6.33321V19.6665C22.2016 20.5506 21.8504 21.3984 21.2253 22.0236C20.6002 22.6487 19.7523 22.9999 18.8683 22.9999H5.53492C4.65086 22.9999 3.80302 22.6487 3.17789 22.0236C2.55277 21.3984 2.20158 20.5506 2.20158 19.6665V6.33321C2.20158 5.44916 2.55277 4.60131 3.17789 3.97619C3.80302 3.35107 4.65086 2.99988 5.53492 2.99988H18.8683ZM7.75714 10.7777C7.46245 10.7777 7.17984 10.8947 6.97147 11.1031C6.76309 11.3115 6.64603 11.5941 6.64603 11.8888V17.4443C6.64603 17.739 6.76309 18.0216 6.97147 18.23C7.17984 18.4384 7.46245 18.5554 7.75714 18.5554C8.05182 18.5554 8.33444 18.4384 8.54281 18.23C8.75119 18.0216 8.86825 17.739 8.86825 17.4443V11.8888C8.86825 11.5941 8.75119 11.3115 8.54281 11.1031C8.33444 10.8947 8.05182 10.7777 7.75714 10.7777ZM11.0905 9.66654C10.7958 9.66654 10.5132 9.78361 10.3048 9.99198C10.0964 10.2004 9.97936 10.483 9.97936 10.7777V17.4443C9.97936 17.739 10.0964 18.0216 10.3048 18.23C10.5132 18.4384 10.7958 18.5554 11.0905 18.5554C11.3852 18.5554 11.6678 18.4384 11.8761 18.23C12.0845 18.0216 12.2016 17.739 12.2016 17.4443V13.3777C12.5405 12.9954 13.1127 12.5465 13.7494 12.2743C14.1194 12.1165 14.676 12.0521 15.0627 12.1743C15.191 12.2069 15.3052 12.2802 15.3883 12.3832C15.446 12.461 15.5349 12.6343 15.5349 12.9999V17.4443C15.5349 17.739 15.652 18.0216 15.8604 18.23C16.0687 18.4384 16.3513 18.5554 16.646 18.5554C16.9407 18.5554 17.2233 18.4384 17.4317 18.23C17.6401 18.0216 17.7571 17.739 17.7571 17.4443V12.9999C17.7571 12.2554 17.5683 11.5932 17.1749 11.0621C16.813 10.5805 16.3064 10.2274 15.7294 10.0543C14.7271 9.73988 13.6171 9.91432 12.876 10.2321C12.6388 10.3341 12.4076 10.4499 12.1838 10.5788C12.1372 10.3228 12.0023 10.0912 11.8025 9.9245C11.6027 9.7578 11.3507 9.66651 11.0905 9.66654ZM7.75714 7.44432C7.46245 7.44432 7.17984 7.56139 6.97147 7.76976C6.76309 7.97813 6.64603 8.26075 6.64603 8.55543C6.64603 8.85012 6.76309 9.13273 6.97147 9.34111C7.17984 9.54948 7.46245 9.66654 7.75714 9.66654C8.05182 9.66654 8.33444 9.54948 8.54281 9.34111C8.75119 9.13273 8.86825 8.85012 8.86825 8.55543C8.86825 8.26075 8.75119 7.97813 8.54281 7.76976C8.33444 7.56139 8.05182 7.44432 7.75714 7.44432Z" fill="#83898D"/>
</svg>
