<svg width="25" height="25" viewBox="0 0 25 25" fill="none" xmlns="http://www.w3.org/2000/svg">
<path fill-rule="evenodd" clip-rule="evenodd" d="M18.8683 2.99988C19.7523 2.99988 20.6002 3.35107 21.2253 3.97619C21.8504 4.60131 22.2016 5.44916 22.2016 6.33321V19.6665C22.2016 20.5506 21.8504 21.3984 21.2253 22.0236C20.6002 22.6487 19.7523 22.9999 18.8683 22.9999H5.53493C4.65088 22.9999 3.80303 22.6487 3.17791 22.0236C2.55279 21.3984 2.2016 20.5506 2.2016 19.6665V6.33321C2.2016 5.44916 2.55279 4.60131 3.17791 3.97619C3.80303 3.35107 4.65088 2.99988 5.53493 2.99988H18.8683ZM7.75715 10.7777C7.46247 10.7777 7.17985 10.8947 6.97148 11.1031C6.76311 11.3115 6.64604 11.5941 6.64604 11.8888V17.4443C6.64604 17.739 6.76311 18.0216 6.97148 18.23C7.17985 18.4384 7.46247 18.5554 7.75715 18.5554C8.05184 18.5554 8.33446 18.4384 8.54283 18.23C8.7512 18.0216 8.86827 17.739 8.86827 17.4443V11.8888C8.86827 11.5941 8.7512 11.3115 8.54283 11.1031C8.33446 10.8947 8.05184 10.7777 7.75715 10.7777ZM11.0905 9.66654C10.7958 9.66654 10.5132 9.78361 10.3048 9.99198C10.0964 10.2004 9.97938 10.483 9.97938 10.7777V17.4443C9.97938 17.739 10.0964 18.0216 10.3048 18.23C10.5132 18.4384 10.7958 18.5554 11.0905 18.5554C11.3852 18.5554 11.6678 18.4384 11.8762 18.23C12.0845 18.0216 12.2016 17.739 12.2016 17.4443V13.3777C12.5405 12.9954 13.1127 12.5465 13.7494 12.2743C14.1194 12.1165 14.676 12.0521 15.0627 12.1743C15.191 12.2069 15.3052 12.2802 15.3883 12.3832C15.446 12.461 15.5349 12.6343 15.5349 12.9999V17.4443C15.5349 17.739 15.652 18.0216 15.8604 18.23C16.0687 18.4384 16.3514 18.5554 16.646 18.5554C16.9407 18.5554 17.2233 18.4384 17.4317 18.23C17.6401 18.0216 17.7572 17.739 17.7572 17.4443V12.9999C17.7572 12.2554 17.5683 11.5932 17.1749 11.0621C16.813 10.5805 16.3064 10.2274 15.7294 10.0543C14.7272 9.73988 13.6172 9.91432 12.876 10.2321C12.6388 10.3341 12.4077 10.4499 12.1838 10.5788C12.1372 10.3228 12.0023 10.0912 11.8025 9.9245C11.6027 9.7578 11.3507 9.66651 11.0905 9.66654ZM7.75715 7.44432C7.46247 7.44432 7.17985 7.56139 6.97148 7.76976C6.76311 7.97813 6.64604 8.26075 6.64604 8.55543C6.64604 8.85012 6.76311 9.13273 6.97148 9.34111C7.17985 9.54948 7.46247 9.66654 7.75715 9.66654C8.05184 9.66654 8.33446 9.54948 8.54283 9.34111C8.7512 9.13273 8.86827 8.85012 8.86827 8.55543C8.86827 8.26075 8.7512 7.97813 8.54283 7.76976C8.33446 7.56139 8.05184 7.44432 7.75715 7.44432Z" fill="#1877F2"/>
</svg>
