<svg width="45" height="45" viewBox="0 0 45 45" fill="none" xmlns="http://www.w3.org/2000/svg">
<path d="M38.2557 30.5542L32.7139 29.9683C32.0623 29.8974 31.4018 29.9642 30.782 30.1637C30.1623 30.3631 29.5994 30.69 29.1357 31.1198L25.1212 34.837C18.9274 31.9203 13.8931 27.2588 10.7431 21.5238L14.7794 17.7865C15.7176 16.9178 16.1758 15.7057 16.023 14.4733L15.3903 9.38241C15.2666 8.3969 14.7558 7.48793 13.9552 6.82856C13.1546 6.16919 12.12 5.80546 11.0485 5.80664H7.27398C4.80853 5.80664 2.75763 7.70564 2.91036 9.98847C4.06672 27.241 18.9685 41.0188 37.5793 42.0895C40.0448 42.231 42.0957 40.332 42.0957 38.0491V34.5542C42.1175 32.5138 40.4593 30.7966 38.2557 30.5542Z" fill="#FECC00"/>
<path d="M37.5 20.2012V23.9512L43.125 18.3262L37.5 12.7012V16.4512H30V20.2012H37.5Z" fill="#55595C"/>
</svg>
