<svg width="57" height="57" viewBox="0 0 57 57" fill="none" xmlns="http://www.w3.org/2000/svg">
<g clip-path="url(#clip0_5_995)">
<path fill-rule="evenodd" clip-rule="evenodd" d="M28.5 57C32.2427 57 35.9487 56.2628 39.4065 54.8306C42.8643 53.3983 46.0061 51.299 48.6525 48.6525C51.299 46.0061 53.3983 42.8643 54.8306 39.4065C56.2628 35.9487 57 32.2427 57 28.5C57 24.7573 56.2628 21.0513 54.8306 17.5935C53.3983 14.1357 51.299 10.9939 48.6525 8.34746C46.0061 5.70099 42.8643 3.60169 39.4065 2.16943C35.9487 0.737174 32.2427 -5.57702e-08 28.5 0C20.9413 1.12633e-07 13.6922 3.00267 8.34746 8.34746C3.00267 13.6922 0 20.9413 0 28.5C0 36.0587 3.00267 43.3078 8.34746 48.6525C13.6922 53.9973 20.9413 57 28.5 57Z" fill="#E6F1FF"/>
<path d="M28.5 14.75C27.0413 14.75 25.6424 15.3295 24.6109 16.3609C23.5795 17.3924 23 18.7913 23 20.25C23 21.7087 23.5795 23.1076 24.6109 24.1391C25.6424 25.1705 27.0413 25.75 28.5 25.75C29.9587 25.75 31.3576 25.1705 32.3891 24.1391C33.4205 23.1076 34 21.7087 34 20.25C34 18.7913 33.4205 17.3924 32.3891 16.3609C31.3576 15.3295 29.9587 14.75 28.5 14.75ZM35.375 28.5H21.625C20.531 28.5 19.4818 28.9346 18.7082 29.7082C17.9346 30.4818 17.5 31.531 17.5 32.625C17.5 35.694 18.7622 38.1525 20.833 39.8162C22.8707 41.4525 25.6042 42.25 28.5 42.25C31.3958 42.25 34.1292 41.4525 36.167 39.8162C38.235 38.1525 39.5 35.694 39.5 32.625C39.5 31.531 39.0654 30.4818 38.2918 29.7082C37.5182 28.9346 36.469 28.5 35.375 28.5Z" fill="#333333"/>
</g>
<defs>
<clipPath id="clip0_5_995">
<rect width="57" height="57" fill="white"/>
</clipPath>
</defs>
</svg>
