<svg width="24" height="24" viewBox="0 0 24 24" fill="none" xmlns="http://www.w3.org/2000/svg">
<g clip-path="url(#clip0_5_992)">
<path fill-rule="evenodd" clip-rule="evenodd" d="M12 24C13.5759 24 15.1363 23.6896 16.5922 23.0866C18.0481 22.4835 19.371 21.5996 20.4853 20.4853C21.5996 19.371 22.4835 18.0481 23.0866 16.5922C23.6896 15.1363 24 13.5759 24 12C24 10.4241 23.6896 8.86371 23.0866 7.4078C22.4835 5.95189 21.5996 4.62902 20.4853 3.51472C19.371 2.40042 18.0481 1.5165 16.5922 0.913445C15.1363 0.310389 13.5759 -2.34822e-08 12 0C8.8174 4.74244e-08 5.76516 1.26428 3.51472 3.51472C1.26428 5.76515 0 8.8174 0 12C0 15.1826 1.26428 18.2348 3.51472 20.4853C5.76516 22.7357 8.8174 24 12 24Z" fill="#FECC00"/>
<path d="M18.25 15.8505C18.25 16.3146 18.0656 16.7597 17.7374 17.0879C17.4092 17.4161 16.9641 17.6005 16.5 17.6005C16.0359 17.6005 15.5908 17.4161 15.2626 17.0879C14.9344 16.7597 14.75 16.3146 14.75 15.8505C14.75 15.3864 14.9344 14.9412 15.2626 14.6131C15.5908 14.2849 16.0359 14.1005 16.5 14.1005C16.9641 14.1005 17.4092 14.2849 17.7374 14.6131C18.0656 14.9412 18.25 15.3864 18.25 15.8505ZM11.25 15.8505C11.25 16.3146 11.0656 16.7597 10.7374 17.0879C10.4092 17.4161 9.96413 17.6005 9.5 17.6005C9.03587 17.6005 8.59075 17.4161 8.26256 17.0879C7.93437 16.7597 7.75 16.3146 7.75 15.8505C7.75 15.3864 7.93437 14.9412 8.26256 14.6131C8.59075 14.2849 9.03587 14.1005 9.5 14.1005C9.96413 14.1005 10.4092 14.2849 10.7374 14.6131C11.0656 14.9412 11.25 15.3864 11.25 15.8505Z" stroke="#55595C" stroke-width="1.05" stroke-linecap="round" stroke-linejoin="round"/>
<path d="M14.75 15.8504H11.25M6 6.40039H13C13.9898 6.40039 14.4847 6.40039 14.792 6.70839C15.1 7.01499 15.1 7.50989 15.1 8.50039V14.4504M15.45 8.15039H16.7107C17.2917 8.15039 17.5822 8.15039 17.823 8.28689C18.0638 8.42269 18.2129 8.67189 18.5118 9.17029L19.7011 11.1513C19.8495 11.3991 19.9237 11.5237 19.9622 11.6609C20 11.7988 20 11.943 20 12.2321V14.1004C20 14.7549 20 15.0818 19.8593 15.3254C19.7671 15.485 19.6346 15.6175 19.475 15.7097C19.2314 15.8504 18.9045 15.8504 18.25 15.8504M6 12.7004V14.1004C6 14.7549 6 15.0818 6.1407 15.3254C6.23285 15.485 6.36539 15.6175 6.525 15.7097C6.7686 15.8504 7.0955 15.8504 7.75 15.8504M6 8.50039H10.2M6 10.6004H8.8" stroke="#55595C" stroke-width="1.05" stroke-linecap="round" stroke-linejoin="round"/>
</g>
<defs>
<clipPath id="clip0_5_992">
<rect width="24" height="24" fill="white"/>
</clipPath>
</defs>
</svg>
