<svg width="40" height="40" viewBox="0 0 40 40" fill="none" xmlns="http://www.w3.org/2000/svg">
<path d="M0 20C0 8.95431 8.95431 0 20 0C31.0457 0 40 8.95431 40 20C40 31.0457 31.0457 40 20 40C8.95431 40 0 31.0457 0 20Z" fill="#FECC00"/>
<path d="M20.8459 12.4375C20.8459 13.2725 21.6626 14.5194 22.4894 15.5659C23.5524 16.9163 24.8226 18.0945 26.2789 18.9937C27.3708 19.6678 28.6946 20.3148 29.7598 20.3148M29.7598 20.3148C28.6946 20.3148 27.3697 20.9619 26.2789 21.636C24.8226 22.5362 23.5524 23.7144 22.4894 25.0626C21.6626 26.1103 20.8459 27.3594 20.8459 28.1921M29.7598 20.3148L10.7453 20.3148L29.7598 20.3148Z" fill="#FECC00"/>
<path d="M20.8459 12.4375C20.8459 13.2725 21.6626 14.5194 22.4894 15.5659C23.5524 16.9163 24.8226 18.0945 26.2789 18.9937C27.3708 19.6678 28.6946 20.3148 29.7598 20.3148M29.7598 20.3148C28.6946 20.3148 27.3697 20.9619 26.2789 21.636C24.8226 22.5362 23.5524 23.7144 22.4894 25.0626C21.6626 26.1103 20.8459 27.3594 20.8459 28.1921M29.7598 20.3148L10.7453 20.3148" stroke="#55595C" stroke-width="3"/>
</svg>
