<svg width="40" height="40" viewBox="0 0 40 40" fill="none" xmlns="http://www.w3.org/2000/svg">
<path d="M40 20C40 31.0457 31.0457 40 20 40C8.95431 40 0 31.0457 0 20C0 8.95431 8.95431 0 20 0C31.0457 0 40 8.95431 40 20Z" fill="#E6F1FF"/>
<path d="M19.1541 27.5625C19.1541 26.7275 18.3374 25.4806 17.5106 24.4341C16.4476 23.0837 15.1774 21.9055 13.7211 21.0063C12.6292 20.3322 11.3054 19.6852 10.2402 19.6852M10.2402 19.6852C11.3054 19.6852 12.6303 19.0381 13.7211 18.364C15.1774 17.4638 16.4476 16.2856 17.5106 14.9374C18.3374 13.8897 19.1541 12.6406 19.1541 11.8079M10.2402 19.6852L29.2547 19.6852L10.2402 19.6852Z" fill="#E6F1FF"/>
<path d="M19.1541 27.5625C19.1541 26.7275 18.3374 25.4806 17.5106 24.4341C16.4476 23.0837 15.1774 21.9055 13.7211 21.0063C12.6292 20.3322 11.3054 19.6852 10.2402 19.6852M10.2402 19.6852C11.3054 19.6852 12.6303 19.0381 13.7211 18.364C15.1774 17.4638 16.4476 16.2856 17.5106 14.9374C18.3374 13.8897 19.1541 12.6406 19.1541 11.8079M10.2402 19.6852L29.2547 19.6852" stroke="#55595C" stroke-width="3"/>
</svg>
