<svg width="19" height="19" viewBox="0 0 19 19" fill="none" xmlns="http://www.w3.org/2000/svg">
<path d="M7.54698 1.7973C4.48671 1.7973 2 4.22781 2 7.21891C2 10.21 4.48671 12.6405 7.54698 12.6405C8.75783 12.6405 9.87691 12.2593 10.7895 11.614C10.7895 11.614 11.2256 11.6929 11.4369 11.859C11.7182 12.0799 11.8627 12.6604 11.8627 12.6604L12.9359 13.7069L15.0186 15.7973L16 14.9028L13.8791 12.8249L12.8186 11.7859C12.8186 11.7859 12.1025 11.7408 11.8847 11.4214C11.7327 11.1986 11.7582 10.7469 11.7582 10.7469C12.5918 9.79766 13.094 8.56559 13.094 7.21891C13.094 4.22781 10.6072 1.7973 7.54698 1.7973ZM7.54698 2.43514C10.2542 2.43514 12.4414 4.57289 12.4414 7.21891C12.4414 9.86493 10.2542 12.0027 7.54698 12.0027C4.83977 12.0027 2.65259 9.86493 2.65259 7.21891C2.65259 4.57289 4.83977 2.43514 7.54698 2.43514Z" fill="#333333"/>
<path d="M13.0938 7.21918C13.0938 4.22807 10.6071 1.7973 7.54688 1.7973C4.48665 1.79736 2 4.22811 2 7.21918L2.00684 7.4975C2.15551 10.3595 4.58223 12.64 7.54688 12.6401C8.75766 12.6401 9.87649 12.259 10.7891 11.6137C10.7891 11.6137 11.2251 11.693 11.4365 11.8588C11.7178 12.0798 11.8623 12.6606 11.8623 12.6606L12.9355 13.7065L15.0186 15.7973L16 14.9028L12.8184 11.7856C12.8026 11.7846 12.1854 11.7429 11.9307 11.478L11.8848 11.4213C11.7328 11.1985 11.7578 10.7465 11.7578 10.7465C12.5392 9.85661 13.0296 8.71854 13.0879 7.47015L13.0938 7.21918ZM11.9414 7.21918C11.9414 4.86001 9.98878 2.935 7.54688 2.935C5.10502 2.93505 3.15234 4.86004 3.15234 7.21918C3.15249 9.57819 5.10511 11.5023 7.54688 11.5024V12.0024C4.92426 12.0023 2.78995 9.99633 2.65918 7.46527L2.65234 7.21918C2.65234 4.57319 4.83971 2.43505 7.54688 2.435C10.2541 2.435 12.4414 4.57315 12.4414 7.21918L12.4346 7.46527C12.3038 9.99636 10.1695 12.0024 7.54688 12.0024V11.5024C9.98869 11.5024 11.9413 9.57822 11.9414 7.21918ZM13.5938 7.21918C13.5937 8.62222 13.0936 9.90986 12.2607 10.9243C12.2614 10.9344 12.2617 10.9449 12.2627 10.9555C12.2674 11.0085 12.275 11.0577 12.2852 11.0971C12.2961 11.1396 12.3041 11.1493 12.2979 11.1401C12.2862 11.123 12.2894 11.1376 12.3467 11.1664C12.4 11.1932 12.4719 11.2174 12.5537 11.2377C12.6336 11.2576 12.7109 11.2702 12.7686 11.2778C12.7967 11.2815 12.8195 11.2842 12.834 11.2856C12.8408 11.2862 12.8458 11.2863 12.8486 11.2866L13.0361 11.2983L13.1689 11.4291L16.3496 14.5453L16.7275 14.9164L15.002 16.4887L12.5869 14.0649L11.5137 13.018L11.4121 12.9194L11.3779 12.7817L11.377 12.7807C11.3764 12.7784 11.3757 12.7739 11.374 12.768C11.3708 12.7562 11.3656 12.7376 11.3584 12.7143C11.3437 12.6669 11.3214 12.6025 11.293 12.5336C11.226 12.3714 11.1597 12.2774 11.1279 12.2524C11.1012 12.2314 11.0176 12.1917 10.8906 12.1537C10.8889 12.1532 10.8874 12.1523 10.8857 12.1518C9.92812 12.7757 8.78065 13.1401 7.54688 13.1401C4.22144 13.14 1.50015 10.497 1.5 7.21918C1.5 3.94125 4.22135 1.29736 7.54688 1.2973C10.8724 1.2973 13.5938 3.94122 13.5938 7.21918Z" fill="#333333"/>
</svg>
