<svg width="21" height="21" viewBox="0 0 21 21" fill="none" xmlns="http://www.w3.org/2000/svg">
<path d="M21 21H12.6V12.6H21V21ZM8.4 21H0V12.6H8.4V21ZM21 8.4H12.6V0H21V8.4ZM4.2 8.4C3.08609 8.4 2.0178 7.9575 1.23015 7.16985C0.442499 6.38219 0 5.31391 0 4.2C0 3.08609 0.442499 2.0178 1.23015 1.23015C2.0178 0.442499 3.08609 0 4.2 0C5.31391 0 6.38219 0.442499 7.16985 1.23015C7.9575 2.0178 8.4 3.08609 8.4 4.2C8.4 5.31391 7.9575 6.38219 7.16985 7.16985C6.38219 7.9575 5.31391 8.4 4.2 8.4Z" fill="#3E6D9D"/>
<path d="M21 21H12.6V12.6H21V21ZM8.4 21H0V12.6H8.4V21ZM21 8.4H12.6V0H21V8.4ZM4.2 8.4C3.08609 8.4 2.0178 7.9575 1.23015 7.16985C0.442499 6.38219 0 5.31391 0 4.2C0 3.08609 0.442499 2.0178 1.23015 1.23015C2.0178 0.442499 3.08609 0 4.2 0C5.31391 0 6.38219 0.442499 7.16985 1.23015C7.9575 2.0178 8.4 3.08609 8.4 4.2C8.4 5.31391 7.9575 6.38219 7.16985 7.16985C6.38219 7.9575 5.31391 8.4 4.2 8.4Z" fill="#FECC00"/>
<path d="M4.2 8.4C3.08609 8.4 2.0178 7.9575 1.23015 7.16985C0.442499 6.38219 0 5.31391 0 4.2C0 3.08609 0.442499 2.0178 1.23015 1.23015C2.0178 0.442499 3.08609 0 4.2 0C5.31391 0 6.38219 0.442499 7.16985 1.23015C7.9575 2.0178 8.4 3.08609 8.4 4.2C8.4 5.31391 7.9575 6.38219 7.16985 7.16985C6.38219 7.9575 5.31391 8.4 4.2 8.4Z" fill="#83898D"/>
</svg>
