<svg width="160" height="160" viewBox="0 0 160 160" fill="none" xmlns="http://www.w3.org/2000/svg">
<rect width="160" height="160" rx="80" fill="#E6F1FF"/>
<path d="M51.2751 33.5664C48.5639 33.5664 46.4053 35.7517 46.4053 38.4629V118.536C46.4053 121.248 48.5639 123.433 51.2751 123.433H110.725C113.436 123.433 115.595 121.248 115.595 118.536V58.3682H97.6853C94.0184 58.3682 90.8196 55.6933 90.8196 52.1411V33.5664H51.2751ZM94.2258 33.5664V52.1411C94.2258 53.6008 95.6156 54.9619 97.6853 54.9619H115.595L94.2258 33.5664ZM80.7871 59.6721C80.9149 59.6707 81.0635 59.708 81.1863 59.7253C83.0277 59.9859 84.3067 62.2135 86.136 62.7856C88.0872 63.3959 90.6692 62.1079 92.3364 63.2913C94.0036 64.4746 93.618 67.3189 94.8379 68.9595C96.0578 70.6001 98.8949 71.0671 99.5481 73.0044C100.201 74.9417 98.2215 77.0008 98.2441 79.0452C98.2667 81.0895 100.291 83.1347 99.6812 85.0859C99.0709 87.0372 96.2341 87.5701 95.0508 89.2373C93.8674 90.9045 94.2964 93.7122 92.6558 94.9321C91.8448 95.5352 90.8091 95.5341 89.7285 95.4644V121.304L81.6121 110.101L73.469 121.304V95.5708C72.1038 95.6986 70.7276 95.9346 69.6902 95.1982C68.023 94.0149 68.4086 91.1706 67.1887 89.53C65.9688 87.8894 63.1318 87.4224 62.4785 85.4851C61.8253 83.5478 63.8051 81.4887 63.7825 79.4443C63.7598 77.4 61.7352 75.3548 62.3455 73.4036C62.9557 71.4523 65.7925 70.946 66.9758 69.2788C68.1592 67.6116 67.7036 64.7773 69.3442 63.5574C70.9848 62.3375 73.5542 63.5985 75.4915 62.9453C77.4287 62.2921 78.7428 59.6947 80.7871 59.6721ZM80.7871 65.1807C74.264 65.2814 68.4746 69.9704 67.2153 76.6235C65.7761 84.2271 70.7886 91.6035 78.3921 93.0427C85.9956 94.4819 93.3721 89.4429 94.8113 81.8394C96.2505 74.2358 91.2381 66.8594 83.6345 65.4202C82.6841 65.2403 81.719 65.1663 80.7871 65.1807ZM80.3347 67.6821C81.0737 67.6394 81.8115 67.6843 82.5701 67.7886C82.7658 67.8155 82.9591 67.8578 83.1555 67.895C89.4397 69.0845 93.5525 75.1028 92.363 81.387C91.1736 87.6711 85.1552 91.7839 78.8711 90.5945C72.587 89.405 68.4741 83.3601 69.6636 77.0759C70.6718 71.7491 75.1615 67.9809 80.3347 67.6821ZM80.9202 68.9329C75.973 69.2013 71.8034 73.1579 71.074 77.9541C71.0022 78.4264 71.1285 78.8985 71.3667 79.2048C71.6049 79.5111 71.9466 79.6987 72.3247 79.6838C72.7028 79.669 73.0356 79.4905 73.2827 79.2581C73.5298 79.0256 73.7131 78.7192 73.7617 78.3799C74.2555 74.9337 77.5535 71.7369 81.0266 71.6738C81.179 71.6678 81.3264 71.6707 81.479 71.6738C81.8309 71.6812 82.1636 71.5657 82.437 71.3545C82.7104 71.1433 82.9255 70.8481 82.9958 70.4763C83.0662 70.1046 82.966 69.7243 82.7031 69.4385C82.506 69.2241 82.2369 69.0589 81.9048 68.9861C81.7941 68.9617 81.6516 68.962 81.5322 68.9595C81.3251 68.9551 81.1274 68.9248 80.9202 68.9329Z" fill="#55595C"/>
<g filter="url(#filter0_d_5_978)">
<circle cx="81.5" cy="79" r="15" fill="#FECC00"/>
</g>
<defs>
<filter id="filter0_d_5_978" x="62.5" y="64" width="38" height="38" filterUnits="userSpaceOnUse" color-interpolation-filters="sRGB">
<feFlood flood-opacity="0" result="BackgroundImageFix"/>
<feColorMatrix in="SourceAlpha" type="matrix" values="0 0 0 0 0 0 0 0 0 0 0 0 0 0 0 0 0 0 127 0" result="hardAlpha"/>
<feOffset dy="4"/>
<feGaussianBlur stdDeviation="2"/>
<feComposite in2="hardAlpha" operator="out"/>
<feColorMatrix type="matrix" values="0 0 0 0 0 0 0 0 0 0 0 0 0 0 0 0 0 0 0.25 0"/>
<feBlend mode="normal" in2="BackgroundImageFix" result="effect1_dropShadow_5_978"/>
<feBlend mode="normal" in="SourceGraphic" in2="effect1_dropShadow_5_978" result="shape"/>
</filter>
</defs>
</svg>
