<svg width="160" height="160" viewBox="0 0 160 160" fill="none" xmlns="http://www.w3.org/2000/svg">
<rect width="160" height="160" rx="80" fill="#E6F1FF"/>
<g filter="url(#filter0_d_5_979)">
<path fill-rule="evenodd" clip-rule="evenodd" d="M81.4457 33C87.6022 36.9004 93.156 38.7455 97.9333 38.3071C98.7645 55.1692 92.544 65.1166 81.5096 69.2727C81.4365 69.2453 81.3726 69.2179 81.2995 69.1905C81.2264 69.2179 81.1625 69.2453 81.0894 69.2727C70.055 65.1257 63.8345 55.1692 64.6657 38.3071C69.4339 38.7455 74.9968 36.9004 81.1534 33L81.2995 33.1096L81.4457 33ZM71.4435 49.6155L75.0424 49.5698L75.3165 49.6338C76.0472 50.0539 76.7232 50.5289 77.3717 51.077C77.8376 51.4698 78.276 51.89 78.6871 52.3558C79.975 50.2823 81.3543 48.3732 82.8067 46.6194C84.3961 44.7012 85.3917 43.6416 87.1638 42.0522L87.5109 41.9152H91.4387L90.644 42.7921C88.2142 45.4959 86.6888 47.6059 84.6975 50.4833C82.6971 53.3697 80.9159 56.3475 79.3265 59.4076L78.8332 60.3575L78.3765 59.3893C77.5361 57.5898 76.5405 55.9456 75.3439 54.475C74.1473 53.0044 72.7588 51.689 71.1329 50.5837L71.4435 49.6155Z" fill="#FECC00"/>
</g>
<g clip-path="url(#clip0_5_979)">
<path d="M95.1881 78.208C92.0423 77.6914 83.9343 77.7256 78.554 79.6563C73.1722 81.5868 63.3862 87.6212 60.4509 88.5886C57.5156 89.5531 57.2704 93.4167 63.8748 94.1397C70.4805 94.865 76.3511 90.7595 77.8187 90.0367C79.2864 89.3113 93.4751 91.485 93.4751 91.485L97.9391 92.5705L108.231 106.298C110.037 104.75 113.609 101.465 114.513 98.9678C114.844 98.0584 115.334 97.2225 115.872 96.4801L101.289 76.6338C99.4284 77.6744 97.1831 78.5365 95.1881 78.208Z" fill="#55595C"/>
<path d="M95.1881 94.5627L93.0251 94.3473C90.1871 93.9136 82.1618 92.786 79.1492 92.786C79.0161 92.786 78.9108 92.7874 78.8322 92.7912C78.7111 92.8595 78.5711 92.9385 78.4339 93.0173C76.2964 94.2461 71.2874 97.1227 65.4543 97.1227C64.8149 97.1227 64.1744 97.0871 63.5512 97.0188C62.6057 96.915 61.7744 96.7546 61.0393 96.5523C61.7358 96.8533 62.3777 97.2844 62.9265 97.8377C63.7896 98.7077 64.3235 99.7747 64.5353 100.891C65.0374 100.758 65.5581 100.684 66.0908 100.684C67.7235 100.684 69.2512 101.318 70.391 102.469C71.5152 103.602 72.1237 105.1 72.1064 106.685C72.1064 106.7 72.1038 106.716 72.1038 106.732C73.7299 106.737 75.2509 107.371 76.3881 108.516C77.5121 109.649 78.1208 111.147 78.1035 112.732C78.0981 113.279 78.013 113.812 77.8625 114.325C79.0159 114.563 80.072 115.129 80.9163 115.981C83.2362 118.322 83.195 122.086 80.8244 124.376L79.6379 125.522C79.6431 125.522 79.6485 125.522 79.6538 125.522C81.6488 125.38 83.3282 124.166 83.7983 122.336C84.6106 122.968 85.6334 123.348 86.7483 123.348C89.3826 123.348 91.5187 121.241 91.5187 118.641C91.5187 118.367 91.4907 118.102 91.4441 117.842C92.2831 118.563 93.3765 119.003 94.5765 119.003C97.2108 119.003 99.3471 116.895 99.3471 114.296C99.9118 114.529 100.531 114.659 101.181 114.659C103.817 114.659 105.951 112.551 105.951 109.951C105.951 107.977 104.974 106.692 102.649 104.038L95.1881 94.5627Z" fill="#55595C"/>
<path d="M60.8293 99.8642C59.6387 98.6645 57.689 98.6434 56.4731 99.817L52.0715 104.068C50.8556 105.242 50.8343 107.166 52.0236 108.366C53.2141 109.565 55.1639 109.586 56.3798 108.411L60.7826 104.161C61.9971 102.988 62.0184 101.064 60.8293 99.8642Z" fill="#55595C"/>
<path d="M68.2926 104.495C67.1032 103.294 65.1535 103.273 63.9376 104.448L58.0684 110.114C56.8511 111.289 56.8312 113.213 58.0203 114.412C59.2097 115.613 61.1608 115.634 62.3767 114.459L68.2459 108.792C69.4618 107.619 69.4831 105.695 68.2926 104.495Z" fill="#55595C"/>
<path d="M74.2895 110.543C73.1002 109.343 71.1504 109.321 69.9346 110.496L64.0654 116.164C62.8495 117.337 62.8282 119.261 64.0175 120.463C65.2068 121.661 67.1566 121.682 68.3739 120.507L74.243 114.841C75.4589 113.666 75.4803 111.742 74.2895 110.543Z" fill="#55595C"/>
<path d="M78.8189 118.007C77.6296 116.807 75.6798 116.785 74.4639 117.96L71.04 121.266C69.8241 122.44 69.8028 124.364 70.9921 125.564C72.1826 126.763 74.1324 126.783 75.3483 125.611L78.7722 122.305C79.9883 121.131 80.0082 119.207 78.8189 118.007Z" fill="#55595C"/>
<path d="M132.22 90.7646L112.547 63.9926C112.071 63.3435 111.153 63.2003 110.497 63.6694L101.783 69.905C101.126 70.374 100.98 71.2796 101.457 71.9274L121.13 98.7008C121.605 99.3487 122.523 99.4932 123.179 99.0228L131.895 92.7884C132.55 92.3178 132.697 91.4124 132.22 90.7646ZM125.526 93.1696C124.433 93.9527 122.903 93.7109 122.109 92.632C121.316 91.5531 121.56 90.0444 122.655 89.2613C123.748 88.478 125.277 88.7198 126.071 89.7975C126.863 90.8776 126.62 92.3876 125.526 93.1696Z" fill="#55595C"/>
<path d="M58.6264 96.0534C59.0899 96.0534 59.5428 96.1114 59.9821 96.2099C56.2838 94.8104 55.6712 92.2504 55.5753 91.3476C55.3142 88.9163 56.9004 86.7021 59.5227 85.84C60.5774 85.493 63.3421 84.0054 66.0165 82.5678C68.8852 81.0236 72.0335 79.3297 74.7717 78.0837C71.3011 77.8065 68.0487 77.9235 66.3122 78.2085C64.4423 78.516 62.3542 77.7789 60.5682 76.8301L45.8705 96.8302C46.3113 97.4833 46.7068 98.1983 46.985 98.9683C47.3966 100.104 48.3609 101.402 49.4595 102.627C49.6313 102.409 49.8137 102.196 50.0189 101.997L54.4203 97.7461C55.5513 96.6553 57.0456 96.0534 58.6264 96.0534Z" fill="#55595C"/>
<path d="M60.2179 69.9038L51.5026 63.6694C50.8474 63.2003 49.9298 63.3435 49.453 63.9926L29.7798 90.7648C29.3031 91.4126 29.4509 92.318 30.1061 92.7886L38.8201 99.023C39.4767 99.4934 40.3943 99.3489 40.8698 98.6996L60.543 71.9276C61.0196 71.2798 60.8732 70.3742 60.2179 69.9038ZM54.394 72.8949C53.6016 73.9724 52.0713 74.2142 50.9779 73.4311C49.8831 72.6489 49.6393 71.1391 50.4331 70.0602C51.2256 68.9813 52.7559 68.7395 53.8492 69.5226C54.944 70.3059 55.1864 71.8146 54.394 72.8949Z" fill="#55595C"/>
</g>
<defs>
<filter id="filter0_d_5_979" x="60.5918" y="33" width="41.4154" height="44.2727" filterUnits="userSpaceOnUse" color-interpolation-filters="sRGB">
<feFlood flood-opacity="0" result="BackgroundImageFix"/>
<feColorMatrix in="SourceAlpha" type="matrix" values="0 0 0 0 0 0 0 0 0 0 0 0 0 0 0 0 0 0 127 0" result="hardAlpha"/>
<feOffset dy="4"/>
<feGaussianBlur stdDeviation="2"/>
<feComposite in2="hardAlpha" operator="out"/>
<feColorMatrix type="matrix" values="0 0 0 0 0 0 0 0 0 0 0 0 0 0 0 0 0 0 0.25 0"/>
<feBlend mode="normal" in2="BackgroundImageFix" result="effect1_dropShadow_5_979"/>
<feBlend mode="normal" in="SourceGraphic" in2="effect1_dropShadow_5_979" result="shape"/>
</filter>
<clipPath id="clip0_5_979">
<rect width="103" height="78" fill="white" transform="translate(29.5 50)"/>
</clipPath>
</defs>
</svg>
