<svg width="160" height="160" viewBox="0 0 160 160" fill="none" xmlns="http://www.w3.org/2000/svg">
<rect width="160" height="160" rx="80" fill="#E6F1FF"/>
<path d="M47.4472 111.399C48.4251 111.86 49.3168 112.291 50.1222 112.694C50.9276 113.096 51.7329 113.47 52.5383 113.816V121.064C51.7329 120.776 50.8988 120.475 50.0359 120.16C49.173 119.844 48.2526 119.455 47.2746 118.993C44.6859 120.028 42.0546 120.805 39.3808 121.323C36.707 121.84 33.9595 122.099 31.1384 122.099H28.3771V115.196H31.1384C33.8997 115.196 36.5321 114.895 39.0356 114.292C41.5392 113.689 44.3431 112.725 47.4472 111.399ZM64.6189 122.099C64.1587 122.099 63.756 121.927 63.4109 121.582C63.0657 121.236 62.8931 120.834 62.8931 120.374V115.973C61.8001 115.34 60.9522 114.506 60.3493 113.47C59.7464 112.435 59.4438 111.284 59.4415 110.019V89.3091C59.4415 86.3178 60.8222 84.1317 63.5834 82.7511C66.3447 81.3705 70.7167 80.6801 76.6995 80.6801C82.9124 80.6801 87.342 81.3417 89.9882 82.6648C92.6344 83.9879 93.9575 86.2027 93.9575 89.3091V110.019C93.9575 111.227 93.6561 112.364 93.0532 113.429C92.4503 114.494 91.6012 115.342 90.5059 115.973V120.374C90.5059 120.834 90.3334 121.236 89.9882 121.582C89.643 121.927 89.2404 122.099 88.7801 122.099H85.3285C84.8683 122.099 84.4656 121.927 84.1205 121.582C83.7753 121.236 83.6027 120.834 83.6027 120.374V116.922H69.7963V120.374C69.7963 120.834 69.6237 121.236 69.2786 121.582C68.9334 121.927 68.5307 122.099 68.0705 122.099H64.6189ZM69.3649 110.882C70.2278 110.882 70.9469 110.594 71.5221 110.019C72.0974 109.443 72.385 108.724 72.385 107.862C72.385 106.999 72.0974 106.28 71.5221 105.704C70.9469 105.129 70.2278 104.841 69.3649 104.841C68.502 104.841 67.7829 105.129 67.2076 105.704C66.6324 106.28 66.3447 106.999 66.3447 107.862C66.3447 108.667 66.6473 109.372 67.2525 109.977C67.8577 110.583 68.5618 110.884 69.3649 110.882ZM84.0342 110.882C84.8971 110.882 85.6162 110.594 86.1914 110.019C86.7667 109.443 87.0543 108.724 87.0543 107.862C87.0543 106.999 86.7667 106.28 86.1914 105.704C85.6162 105.129 84.8971 104.841 84.0342 104.841C83.1713 104.841 82.4522 105.129 81.8769 105.704C81.3017 106.28 81.014 106.999 81.014 107.862C81.014 108.667 81.3166 109.372 81.9218 109.977C82.527 110.583 83.2311 110.884 84.0342 110.882ZM64.6189 97.9381H88.7801V91.0349H64.6189V97.9381ZM50.8125 59.9705V53.0673H68.0705V59.9705H76.6995C78.5979 59.9705 80.2236 60.647 81.5766 62.0001C82.9297 63.3531 83.605 64.9776 83.6027 66.8737V74.1221C82.5673 74.007 81.4892 73.9207 80.3686 73.8632C79.248 73.8057 78.0249 73.7769 76.6995 73.7769V66.8737H42.1835V76.6245L59.4415 72.0511L68.1568 74.381C63.0945 75.2439 59.2402 76.8972 56.5939 79.3409C53.9477 81.7846 52.5958 85.6827 52.5383 91.0349V106.222C50.755 105.187 49.3019 104.122 48.1789 103.029L46.498 101.39C44.8873 102.943 43.1327 104.266 41.2343 105.359C39.3359 106.452 37.2937 107.229 35.1077 107.689L27.7731 84.1317C27.4854 83.1538 27.5717 82.2621 28.0319 81.4567C28.4921 80.6514 29.2112 80.1049 30.1892 79.8172L35.2803 78.4366V66.8737C35.2803 64.9753 35.9568 63.3508 37.3098 62.0001C38.6629 60.6493 40.2874 59.9728 42.1835 59.9705H50.8125Z" fill="#55595C"/>
<g clip-path="url(#clip0_5_980)">
<g filter="url(#filter0_d_5_980)">
<path d="M76.9539 36.9267C78.7862 34.7865 81.9845 34.5386 84.091 36.3735L98.2022 48.4544L128.588 38.919L133.737 43.2953L109.735 58.2966L123.883 70.4086L132.104 68.5521L135.952 71.8777L125.706 78.6328L120.579 89.8341L116.667 86.5473L117.26 78.0343L103.221 66.0155L97.6091 79.0326C97.6091 79.0326 95.6316 76.6978 93.9722 75.7405C92.1798 74.7066 88.9002 74.208 88.9002 74.208L91.6183 56.1448L77.5071 44.0639C75.4083 42.33 75.1474 38.9634 76.9539 36.9267Z" fill="#FECC00"/>
</g>
</g>
<path d="M103.409 95.002C102.638 95.002 101.898 95.3312 101.352 95.9172C100.806 96.5033 100.5 97.2982 100.5 98.127L100.5 115.314L103.409 115.314C103.409 116.558 103.869 117.75 104.687 118.629C105.506 119.508 106.615 120.002 107.773 120.002C108.93 120.002 110.04 119.508 110.858 118.629C111.677 117.75 112.136 116.558 112.136 115.314L120.864 115.314C120.864 116.558 121.323 117.75 122.142 118.629C122.96 119.508 124.07 120.002 125.227 120.002C126.385 120.002 127.494 119.508 128.313 118.629C129.131 117.75 129.591 116.558 129.591 115.314L132.5 115.314L132.5 107.502L128.136 101.252L123.773 101.252L123.773 95.002M123.773 103.596L127.409 103.596L130.275 107.502L123.773 107.502M107.773 112.971C108.351 112.971 108.906 113.218 109.316 113.657C109.725 114.097 109.955 114.693 109.955 115.314C109.955 115.936 109.725 116.532 109.316 116.972C108.906 117.411 108.351 117.658 107.773 117.658C107.194 117.658 106.639 117.411 106.23 116.972C105.821 116.532 105.591 115.936 105.591 115.314C105.591 114.693 105.821 114.097 106.23 113.657C106.639 113.218 107.194 112.971 107.773 112.971ZM125.227 112.971C125.806 112.971 126.361 113.218 126.77 113.657C127.179 114.097 127.409 114.693 127.409 115.314C127.409 115.936 127.179 116.532 126.77 116.972C126.361 117.411 125.806 117.658 125.227 117.658C124.649 117.658 124.094 117.411 123.684 116.972C123.275 116.532 123.045 115.936 123.045 115.314C123.045 114.693 123.275 114.097 123.684 113.657C124.094 113.218 124.649 112.971 125.227 112.971Z" fill="#55595C"/>
<defs>
<filter id="filter0_d_5_980" x="71.7501" y="35.1443" width="68.202" height="62.6898" filterUnits="userSpaceOnUse" color-interpolation-filters="sRGB">
<feFlood flood-opacity="0" result="BackgroundImageFix"/>
<feColorMatrix in="SourceAlpha" type="matrix" values="0 0 0 0 0 0 0 0 0 0 0 0 0 0 0 0 0 0 127 0" result="hardAlpha"/>
<feOffset dy="4"/>
<feGaussianBlur stdDeviation="2"/>
<feComposite in2="hardAlpha" operator="out"/>
<feColorMatrix type="matrix" values="0 0 0 0 0 0 0 0 0 0 0 0 0 0 0 0 0 0 0.25 0"/>
<feBlend mode="normal" in2="BackgroundImageFix" result="effect1_dropShadow_5_980"/>
<feBlend mode="normal" in="SourceGraphic" in2="effect1_dropShadow_5_980" result="shape"/>
</filter>
<clipPath id="clip0_5_980">
<rect width="69.584" height="77.0235" fill="white" transform="matrix(-0.14146 -0.989944 0.991237 -0.132092 65.1514 106.37)"/>
</clipPath>
</defs>
</svg>
