<svg width="160" height="160" viewBox="0 0 160 160" fill="none" xmlns="http://www.w3.org/2000/svg">
<rect width="160" height="160" rx="80" fill="#E6F1FF"/>
<path d="M109.818 84.5542V103.065L79.4218 112.214V48.8412L87.7294 51.3433C88.8827 48.5676 90.5638 46.0655 92.6163 43.9153L76.4115 39.048C76.3333 39.0285 76.2551 39.0089 76.177 38.9894C76.0988 38.9698 76.0206 38.9503 75.9424 38.9307C75.4342 38.833 74.9259 38.833 74.4177 38.9307C74.3395 38.9503 74.2613 38.9698 74.1831 38.9894C74.1049 39.0089 74.0268 39.0089 73.9486 39.048L65.2305 41.6674L56.5905 44.2671V66.0429L46.9733 67.8608V47.1406L38.5679 49.6622L35.0298 50.7178C33.2315 51.2651 32 52.9071 32 54.7836V106.193C32 108.07 33.2315 109.731 35.0298 110.259L73.929 121.968C74.32 122.085 74.75 122.144 75.1605 122.144C75.571 122.144 75.9815 122.085 76.392 121.968L115.291 110.259C117.09 109.712 118.321 108.07 118.321 106.193V82.9904C115.702 83.9873 112.867 84.5542 109.896 84.5542C109.857 84.5542 109.837 84.5542 109.818 84.5542Z" fill="#55595C"/>
<g filter="url(#filter0_d_5_981)">
<path d="M109.896 43.4268C100.435 43.4268 92.792 51.0893 92.792 60.5307C92.792 69.9916 100.455 77.6346 109.896 77.6346C119.337 77.6346 127 69.972 127 60.5307C127 51.0893 119.337 43.4268 109.896 43.4268ZM110.971 64.2838L107.687 67.5482L104.423 64.2642L101.276 61.0975L104.559 57.8331L107.707 60.9998L115.252 53.4936L118.516 56.7776L110.971 64.2838Z" fill="#FECC00"/>
</g>
<defs>
<filter id="filter0_d_5_981" x="88.792" y="43.4268" width="42.2078" height="42.2078" filterUnits="userSpaceOnUse" color-interpolation-filters="sRGB">
<feFlood flood-opacity="0" result="BackgroundImageFix"/>
<feColorMatrix in="SourceAlpha" type="matrix" values="0 0 0 0 0 0 0 0 0 0 0 0 0 0 0 0 0 0 127 0" result="hardAlpha"/>
<feOffset dy="4"/>
<feGaussianBlur stdDeviation="2"/>
<feComposite in2="hardAlpha" operator="out"/>
<feColorMatrix type="matrix" values="0 0 0 0 0 0 0 0 0 0 0 0 0 0 0 0 0 0 0.25 0"/>
<feBlend mode="normal" in2="BackgroundImageFix" result="effect1_dropShadow_5_981"/>
<feBlend mode="normal" in="SourceGraphic" in2="effect1_dropShadow_5_981" result="shape"/>
</filter>
</defs>
</svg>
