<svg width="98" height="98" viewBox="0 0 98 98" fill="none" xmlns="http://www.w3.org/2000/svg">
<g clip-path="url(#clip0_14_11002)">
<path d="M9.79688 22.0502C9.79687 20.1009 10.5712 18.2314 11.9496 16.853C13.328 15.4746 15.1975 14.7002 17.1469 14.7002H71.0469C72.9962 14.7002 74.8657 15.4746 76.2441 16.853C77.6225 18.2314 78.3969 20.1009 78.3969 22.0502V39.2002H63.6969C61.0978 39.2002 58.6051 40.2327 56.7672 42.0706C54.9294 43.9084 53.8969 46.4011 53.8969 49.0002V63.7002H17.1469C15.1975 63.7002 13.328 62.9258 11.9496 61.5474C10.5712 60.169 9.79688 58.2995 9.79688 56.3502V22.0502ZM19.5969 34.3002C22.196 34.3002 24.6887 33.2677 26.5265 31.4298C28.3644 29.592 29.3969 27.0993 29.3969 24.5002V19.6002H24.4969V24.5002C24.4969 25.7998 23.9806 27.0461 23.0617 27.965C22.1428 28.8839 20.8964 29.4002 19.5969 29.4002H14.6969V34.3002H19.5969ZM35.5219 39.2002C35.5219 41.4744 36.4253 43.6555 38.0334 45.2636C39.6416 46.8718 41.8226 47.7752 44.0969 47.7752C46.3711 47.7752 48.5522 46.8718 50.1603 45.2636C51.7684 43.6555 52.6719 41.4744 52.6719 39.2002C52.6719 36.926 51.7684 34.7449 50.1603 33.1368C48.5522 31.5286 46.3711 30.6252 44.0969 30.6252C41.8226 30.6252 39.6416 31.5286 38.0334 33.1368C36.4253 34.7449 35.5219 36.926 35.5219 39.2002ZM14.6969 44.1002V49.0002H19.5969C20.8964 49.0002 22.1428 49.5164 23.0617 50.4354C23.9806 51.3543 24.4969 52.6006 24.4969 53.9002V58.8002H29.3969V53.9002C29.3969 51.3011 28.3644 48.8084 26.5265 46.9706C24.6887 45.1327 22.196 44.1002 19.5969 44.1002H14.6969ZM73.4969 34.3002V29.4002H68.5969C67.2973 29.4002 66.051 28.8839 65.1321 27.965C64.2131 27.0461 63.6969 25.7998 63.6969 24.5002V19.6002H58.7969V24.5002C58.7969 27.0993 59.8294 29.592 61.6672 31.4298C63.5051 33.2677 65.9978 34.3002 68.5969 34.3002H73.4969ZM83.2969 39.2002V24.9167C84.7305 25.4236 85.9716 26.3626 86.8492 27.6044C87.7268 28.8462 88.1977 30.3296 88.1969 31.8502V39.2002H83.2969ZM53.8969 68.6002V73.5002H26.9469C25.4263 73.501 23.9429 73.0302 22.7011 72.1526C21.4593 71.275 20.5202 70.0338 20.0134 68.6002H53.8969ZM66.1469 44.1002C64.1975 44.1002 62.328 44.8746 60.9496 46.253C59.5712 47.6314 58.7969 49.5009 58.7969 51.4502V85.7502C58.7969 87.6995 59.5712 89.569 60.9496 90.9474C62.328 92.3258 64.1975 93.1002 66.1469 93.1002H85.7469C87.6962 93.1002 89.5657 92.3258 90.9441 90.9474C92.3225 89.569 93.0969 87.6995 93.0969 85.7502V51.4502C93.0969 49.5009 92.3225 47.6314 90.9441 46.253C89.5657 44.8746 87.6962 44.1002 85.7469 44.1002H66.1469ZM66.1469 63.7002H71.0469C71.6967 63.7002 72.3198 63.9583 72.7793 64.4178C73.2388 64.8772 73.4969 65.5004 73.4969 66.1502C73.4969 66.8 73.2388 67.4231 72.7793 67.8826C72.3198 68.3421 71.6967 68.6002 71.0469 68.6002H66.1469C65.4971 68.6002 64.8739 68.3421 64.4145 67.8826C63.955 67.4231 63.6969 66.8 63.6969 66.1502C63.6969 65.5004 63.955 64.8772 64.4145 64.4178C64.8739 63.9583 65.4971 63.7002 66.1469 63.7002ZM80.8469 63.7002H85.7469C86.3967 63.7002 87.0198 63.9583 87.4793 64.4178C87.9388 64.8772 88.1969 65.5004 88.1969 66.1502C88.1969 66.8 87.9388 67.4231 87.4793 67.8826C87.0198 68.3421 86.3967 68.6002 85.7469 68.6002H80.8469C80.1971 68.6002 79.5739 68.3421 79.1145 67.8826C78.655 67.4231 78.3969 66.8 78.3969 66.1502C78.3969 65.5004 78.655 64.8772 79.1145 64.4178C79.5739 63.9583 80.1971 63.7002 80.8469 63.7002ZM66.1469 73.5002H71.0469C71.6967 73.5002 72.3198 73.7583 72.7793 74.2178C73.2388 74.6772 73.4969 75.3004 73.4969 75.9502C73.4969 76.6 73.2388 77.2231 72.7793 77.6826C72.3198 78.1421 71.6967 78.4002 71.0469 78.4002H66.1469C65.4971 78.4002 64.8739 78.1421 64.4145 77.6826C63.955 77.2231 63.6969 76.6 63.6969 75.9502C63.6969 75.3004 63.955 74.6772 64.4145 74.2178C64.8739 73.7583 65.4971 73.5002 66.1469 73.5002ZM80.8469 73.5002H85.7469C86.3967 73.5002 87.0198 73.7583 87.4793 74.2178C87.9388 74.6772 88.1969 75.3004 88.1969 75.9502C88.1969 76.6 87.9388 77.2231 87.4793 77.6826C87.0198 78.1421 86.3967 78.4002 85.7469 78.4002H80.8469C80.1971 78.4002 79.5739 78.1421 79.1145 77.6826C78.655 77.2231 78.3969 76.6 78.3969 75.9502C78.3969 75.3004 78.655 74.6772 79.1145 74.2178C79.5739 73.7583 80.1971 73.5002 80.8469 73.5002ZM66.1469 83.3002H71.0469C71.6967 83.3002 72.3198 83.5583 72.7793 84.0178C73.2388 84.4772 73.4969 85.1004 73.4969 85.7502C73.4969 86.4 73.2388 87.0231 72.7793 87.4826C72.3198 87.9421 71.6967 88.2002 71.0469 88.2002H66.1469C65.4971 88.2002 64.8739 87.9421 64.4145 87.4826C63.955 87.0231 63.6969 86.4 63.6969 85.7502C63.6969 85.1004 63.955 84.4772 64.4145 84.0178C64.8739 83.5583 65.4971 83.3002 66.1469 83.3002ZM80.8469 83.3002H85.7469C86.3967 83.3002 87.0198 83.5583 87.4793 84.0178C87.9388 84.4772 88.1969 85.1004 88.1969 85.7502C88.1969 86.4 87.9388 87.0231 87.4793 87.4826C87.0198 87.9421 86.3967 88.2002 85.7469 88.2002H80.8469C80.1971 88.2002 79.5739 87.9421 79.1145 87.4826C78.655 87.0231 78.3969 86.4 78.3969 85.7502C78.3969 85.1004 78.655 84.4772 79.1145 84.0178C79.5739 83.5583 80.1971 83.3002 80.8469 83.3002ZM63.6969 51.4502C63.6969 50.8004 63.955 50.1772 64.4145 49.7178C64.8739 49.2583 65.4971 49.0002 66.1469 49.0002H85.7469C86.3967 49.0002 87.0198 49.2583 87.4793 49.7178C87.9388 50.1772 88.1969 50.8004 88.1969 51.4502V56.3502C88.1969 57 87.9388 57.6231 87.4793 58.0826C87.0198 58.5421 86.3967 58.8002 85.7469 58.8002H66.1469C65.4971 58.8002 64.8739 58.5421 64.4145 58.0826C63.955 57.6231 63.6969 57 63.6969 56.3502V51.4502Z" fill="#55595C"/>
<g filter="url(#filter0_d_14_11002)">
<path d="M66.1469 44.1001C64.1975 44.1001 62.328 44.8745 60.9496 46.2529C59.5712 47.6313 58.7969 49.5008 58.7969 51.4501V85.7501C58.7969 87.6994 59.5712 89.5689 60.9496 90.9473C62.328 92.3257 64.1975 93.1001 66.1469 93.1001H85.7469C87.6962 93.1001 89.5657 92.3257 90.9441 90.9473C92.3225 89.5689 93.0969 87.6994 93.0969 85.7501V51.4501C93.0969 49.5008 92.3225 47.6313 90.9441 46.2529C89.5657 44.8745 87.6962 44.1001 85.7469 44.1001H66.1469ZM66.1469 63.7001H71.0469C71.6967 63.7001 72.3198 63.9582 72.7793 64.4177C73.2388 64.8771 73.4969 65.5003 73.4969 66.1501C73.4969 66.7999 73.2388 67.423 72.7793 67.8825C72.3198 68.342 71.6967 68.6001 71.0469 68.6001H66.1469C65.4971 68.6001 64.8739 68.342 64.4145 67.8825C63.955 67.423 63.6969 66.7999 63.6969 66.1501C63.6969 65.5003 63.955 64.8771 64.4145 64.4177C64.8739 63.9582 65.4971 63.7001 66.1469 63.7001ZM80.8469 63.7001H85.7469C86.3967 63.7001 87.0198 63.9582 87.4793 64.4177C87.9388 64.8771 88.1969 65.5003 88.1969 66.1501C88.1969 66.7999 87.9388 67.423 87.4793 67.8825C87.0198 68.342 86.3967 68.6001 85.7469 68.6001H80.8469C80.1971 68.6001 79.5739 68.342 79.1145 67.8825C78.655 67.423 78.3969 66.7999 78.3969 66.1501C78.3969 65.5003 78.655 64.8771 79.1145 64.4177C79.5739 63.9582 80.1971 63.7001 80.8469 63.7001ZM66.1469 73.5001H71.0469C71.6967 73.5001 72.3198 73.7582 72.7793 74.2177C73.2388 74.6772 73.4969 75.3003 73.4969 75.9501C73.4969 76.5999 73.2388 77.223 72.7793 77.6825C72.3198 78.142 71.6967 78.4001 71.0469 78.4001H66.1469C65.4971 78.4001 64.8739 78.142 64.4145 77.6825C63.955 77.223 63.6969 76.5999 63.6969 75.9501C63.6969 75.3003 63.955 74.6772 64.4145 74.2177C64.8739 73.7582 65.4971 73.5001 66.1469 73.5001ZM80.8469 73.5001H85.7469C86.3967 73.5001 87.0198 73.7582 87.4793 74.2177C87.9388 74.6772 88.1969 75.3003 88.1969 75.9501C88.1969 76.5999 87.9388 77.223 87.4793 77.6825C87.0198 78.142 86.3967 78.4001 85.7469 78.4001H80.8469C80.1971 78.4001 79.5739 78.142 79.1145 77.6825C78.655 77.223 78.3969 76.5999 78.3969 75.9501C78.3969 75.3003 78.655 74.6772 79.1145 74.2177C79.5739 73.7582 80.1971 73.5001 80.8469 73.5001ZM66.1469 83.3001H71.0469C71.6967 83.3001 72.3198 83.5582 72.7793 84.0177C73.2388 84.4771 73.4969 85.1003 73.4969 85.7501C73.4969 86.3999 73.2388 87.023 72.7793 87.4825C72.3198 87.942 71.6967 88.2001 71.0469 88.2001H66.1469C65.4971 88.2001 64.8739 87.942 64.4145 87.4825C63.955 87.023 63.6969 86.3999 63.6969 85.7501C63.6969 85.1003 63.955 84.4771 64.4145 84.0177C64.8739 83.5582 65.4971 83.3001 66.1469 83.3001ZM80.8469 83.3001H85.7469C86.3967 83.3001 87.0198 83.5582 87.4793 84.0177C87.9388 84.4771 88.1969 85.1003 88.1969 85.7501C88.1969 86.3999 87.9388 87.023 87.4793 87.4825C87.0198 87.942 86.3967 88.2001 85.7469 88.2001H80.8469C80.1971 88.2001 79.5739 87.942 79.1145 87.4825C78.655 87.023 78.3969 86.3999 78.3969 85.7501C78.3969 85.1003 78.655 84.4771 79.1145 84.0177C79.5739 83.5582 80.1971 83.3001 80.8469 83.3001ZM63.6969 51.4501C63.6969 50.8003 63.955 50.1771 64.4145 49.7177C64.8739 49.2582 65.4971 49.0001 66.1469 49.0001H85.7469C86.3967 49.0001 87.0198 49.2582 87.4793 49.7177C87.9388 50.1771 88.1969 50.8003 88.1969 51.4501V56.3501C88.1969 56.9999 87.9388 57.623 87.4793 58.0825C87.0198 58.542 86.3967 58.8001 85.7469 58.8001H66.1469C65.4971 58.8001 64.8739 58.542 64.4145 58.0825C63.955 57.623 63.6969 56.9999 63.6969 56.3501V51.4501Z" fill="#FECC00"/>
</g>
</g>
<defs>
<filter id="filter0_d_14_11002" x="54.7969" y="44.1001" width="42.3" height="57" filterUnits="userSpaceOnUse" color-interpolation-filters="sRGB">
<feFlood flood-opacity="0" result="BackgroundImageFix"/>
<feColorMatrix in="SourceAlpha" type="matrix" values="0 0 0 0 0 0 0 0 0 0 0 0 0 0 0 0 0 0 127 0" result="hardAlpha"/>
<feOffset dy="4"/>
<feGaussianBlur stdDeviation="2"/>
<feComposite in2="hardAlpha" operator="out"/>
<feColorMatrix type="matrix" values="0 0 0 0 0 0 0 0 0 0 0 0 0 0 0 0 0 0 0.25 0"/>
<feBlend mode="normal" in2="BackgroundImageFix" result="effect1_dropShadow_14_11002"/>
<feBlend mode="normal" in="SourceGraphic" in2="effect1_dropShadow_14_11002" result="shape"/>
</filter>
<clipPath id="clip0_14_11002">
<rect width="98" height="98" fill="white"/>
</clipPath>
</defs>
</svg>
