<svg width="149" height="58" viewBox="0 0 149 58" fill="none" xmlns="http://www.w3.org/2000/svg">
<path fill-rule="evenodd" clip-rule="evenodd" d="M86.7307 17.0157H75.9071C75.7807 17.0157 75.6782 17.1171 75.6782 17.2424V20.1122C75.6782 20.2375 75.7807 20.339 75.9071 20.339H82.4847C82.0769 21.1269 81.5034 21.7358 80.7776 22.1509C79.9502 22.6247 79.0165 22.8587 77.9956 22.8437C76.2586 22.8437 74.8646 22.2956 73.852 21.2143C72.8355 20.1292 72.3267 18.846 72.3414 17.3982C72.3414 15.8679 72.8698 14.5833 73.9113 13.5792C74.9548 12.5742 76.2835 12.0644 77.8608 12.0644C78.7494 12.0644 79.566 12.2402 80.2869 12.5864C81.0006 12.9301 81.5848 13.452 82.0235 14.1385C82.0656 14.2046 82.1387 14.2444 82.2171 14.2444H85.8999C85.9754 14.2444 86.046 14.2075 86.0886 14.1463C86.1313 14.0846 86.1411 14.0065 86.1141 13.9366C85.4853 12.2965 84.4276 10.991 82.9704 10.0564C81.5172 9.12468 79.7978 8.65228 77.8608 8.65228C75.3405 8.65228 73.1791 9.50435 71.4357 11.1857C69.6913 12.868 68.8066 14.9959 68.8066 17.5084C68.7914 20.0535 69.6614 22.1708 71.393 23.8021C73.1202 25.43 75.3116 26.2558 77.9059 26.2558C80.5928 26.2558 82.7861 25.4057 84.4251 23.7288C86.0612 22.0552 86.914 19.8743 86.9596 17.2468C86.9611 17.1856 86.937 17.1268 86.8939 17.0836C86.8513 17.0399 86.792 17.0157 86.7307 17.0157Z" fill="#2C539D"/>
<path fill-rule="evenodd" clip-rule="evenodd" d="M110.103 18.1946H106.967L108.535 14.2382L110.103 18.1946ZM96.472 14.5737C96.472 15.3481 96.2313 15.8952 95.7368 16.2462C95.2251 16.6089 94.5149 16.7934 93.6243 16.7934H92.0348V12.3534H93.6243C94.5129 12.3534 95.2187 12.5408 95.7226 12.9098C96.2127 13.2691 96.4578 13.8148 96.472 14.5737ZM109.975 9.08111C109.939 8.99663 109.856 8.94128 109.763 8.94128H107.306C107.213 8.94128 107.13 8.99663 107.094 9.08111L100.164 25.5345C100.157 25.5195 100.15 25.5044 100.139 25.4908L95.7098 19.7322C96.9185 19.539 97.9252 18.9724 98.707 18.0441C99.5691 17.0211 100.006 15.7933 100.006 14.3955C100.006 12.7185 99.4363 11.3737 98.3115 10.3988C97.1959 9.43165 95.5888 8.94128 93.5346 8.94128H88.7294C88.6029 8.94128 88.5005 9.04276 88.5005 9.1685V25.6282C88.5005 25.754 88.6029 25.8554 88.7294 25.8554H91.8059C91.9324 25.8554 92.0348 25.754 92.0348 25.6282V20.2196L95.9868 25.7593C96.0299 25.8195 96.0995 25.8554 96.174 25.8554H99.9573C100.044 25.8554 100.123 25.8064 100.162 25.7292C100.164 25.7263 100.164 25.7234 100.165 25.7209C100.171 25.7321 100.175 25.7438 100.182 25.7544C100.224 25.8176 100.296 25.8554 100.372 25.8554H103.774C103.869 25.8554 103.953 25.7981 103.987 25.7112L105.614 21.6067H111.455L113.082 25.7112C113.116 25.7981 113.201 25.8554 113.295 25.8554H116.696C116.773 25.8554 116.844 25.8176 116.887 25.7544C116.93 25.6908 116.937 25.6112 116.908 25.5413L109.975 9.08111Z" fill="#2C539D"/>
<path fill-rule="evenodd" clip-rule="evenodd" d="M131.933 8.94128H128.857C128.73 8.94128 128.627 9.04276 128.627 9.16802V19.5419L121.638 9.04324C121.595 8.97964 121.523 8.94128 121.446 8.94128H118.37C118.243 8.94128 118.141 9.04276 118.141 9.16802V25.6282C118.141 25.754 118.243 25.8554 118.37 25.8554H121.446C121.572 25.8554 121.675 25.754 121.675 25.6282V15.2573L128.665 25.7535C128.708 25.8171 128.779 25.8554 128.857 25.8554H131.933C132.059 25.8554 132.162 25.754 132.162 25.6282V9.16802C132.162 9.04276 132.059 8.94128 131.933 8.94128Z" fill="#2C539D"/>
<mask id="mask0_28_3294" style="mask-type:luminance" maskUnits="userSpaceOnUse" x="0" y="0" width="149" height="58">
<path d="M0 0H148.733V57.6964H0V0Z" fill="white"/>
</mask>
<g mask="url(#mask0_28_3294)">
<path fill-rule="evenodd" clip-rule="evenodd" d="M138.291 12.3539H139.409C141.276 12.3539 142.726 12.7739 143.719 13.6017C144.7 14.4203 145.198 15.7277 145.198 17.4858C145.184 19.1879 144.697 20.4551 143.752 21.2518C142.796 22.0568 141.392 22.4544 139.566 22.4433H138.291V12.3539ZM146.276 11.1013C144.653 9.66809 142.403 8.94177 139.589 8.94177H134.985C134.859 8.94177 134.756 9.04324 134.756 9.1685V25.6287C134.756 25.754 134.859 25.8559 134.985 25.8559H139.656C142.671 25.8559 144.963 25.0728 146.468 23.5289C147.971 21.9869 148.733 19.9546 148.733 17.4877C148.733 14.6897 147.906 12.5413 146.276 11.1013Z" fill="#2C539D"/>
</g>
<path fill-rule="evenodd" clip-rule="evenodd" d="M69.4518 41.517V29.5356H71.6912V39.3637H75.3848V41.517H69.4518Z" fill="#2C539D"/>
<path fill-rule="evenodd" clip-rule="evenodd" d="M81.9059 39.6549C83.0827 39.6549 84.0688 39.2529 84.8643 38.4489C85.6598 37.6449 86.0578 36.6759 86.0578 35.5427C86.0578 34.4202 85.6598 33.4618 84.8643 32.6685C84.0688 31.8751 83.0881 31.4785 81.922 31.4785C80.7452 31.4785 79.762 31.8751 78.9719 32.6685C78.1818 33.4618 77.7873 34.4202 77.7873 35.5427C77.7873 36.6865 78.1818 37.658 78.9719 38.4567C79.762 39.2558 80.7398 39.6549 81.9059 39.6549ZM81.922 29.3253C83.7203 29.3253 85.2324 29.9351 86.4582 31.1547C87.684 32.3747 88.2967 33.8536 88.2967 35.5912C88.2967 37.3289 87.6811 38.7995 86.4499 40.003C85.2182 41.2066 83.7091 41.8082 81.922 41.8082C80.1242 41.8082 78.6097 41.2066 77.3785 40.003C76.1468 38.7995 75.5366 37.3289 75.5474 35.5912C75.5474 33.8536 76.1576 32.3747 77.3785 31.1547C78.5985 29.9351 80.1134 29.3253 81.922 29.3253Z" fill="#2C539D"/>
<path fill-rule="evenodd" clip-rule="evenodd" d="M94.2784 35.413H102.157C102.124 37.291 101.525 38.8267 100.359 40.0196C99.1925 41.212 97.651 41.8087 95.7331 41.8087C93.8804 41.8087 92.3385 41.2285 91.1073 40.0681C89.8761 38.9077 89.2658 37.4206 89.2766 35.6073C89.2766 33.8157 89.8976 32.3208 91.1401 31.1226C92.3826 29.9244 93.9025 29.3253 95.7008 29.3253C97.0839 29.3253 98.2936 29.6573 99.3292 30.321C100.364 30.9847 101.105 31.8994 101.552 33.0656H98.8714C98.5333 32.5369 98.0892 32.1397 97.5393 31.8756C96.9888 31.611 96.3762 31.4785 95.7008 31.4785C94.5014 31.4785 93.5045 31.862 92.709 32.6282C91.914 33.3948 91.516 34.3605 91.516 35.5267C91.5053 36.6273 91.8866 37.5906 92.6605 38.4164C93.4339 39.2423 94.4799 39.6549 95.7983 39.6549C96.5722 39.6661 97.2751 39.4908 97.9069 39.1286C98.5386 38.7674 99.0131 38.2251 99.3292 37.5017H94.2784V35.413Z" fill="#2C539D"/>
<mask id="mask1_28_3294" style="mask-type:luminance" maskUnits="userSpaceOnUse" x="0" y="0" width="149" height="58">
<path d="M0 0H148.733V57.6964H0V0Z" fill="white"/>
</mask>
<g mask="url(#mask1_28_3294)">
<path fill-rule="evenodd" clip-rule="evenodd" d="M103.661 29.5356H105.9V41.517H103.661V29.5356Z" fill="#2C539D"/>
</g>
<mask id="mask2_28_3294" style="mask-type:luminance" maskUnits="userSpaceOnUse" x="0" y="0" width="149" height="58">
<path d="M0 0H148.733V57.6964H0V0Z" fill="white"/>
</mask>
<g mask="url(#mask2_28_3294)">
<path fill-rule="evenodd" clip-rule="evenodd" d="M107.306 38.1491H109.643C109.654 38.6133 109.815 38.9803 110.125 39.2503C110.436 39.5197 110.814 39.6547 111.261 39.6547C111.74 39.6547 112.133 39.5149 112.438 39.2338C112.743 38.9531 112.895 38.5919 112.895 38.1491C112.895 37.7175 112.754 37.3422 112.471 37.0237C112.187 36.7057 111.74 36.4435 111.13 36.2387C110.509 36.0444 110.171 35.9367 110.117 35.9148C110.063 35.8935 110.008 35.8663 109.953 35.8337C109.201 35.5318 108.646 35.105 108.286 34.5549C107.927 34.0043 107.747 33.3945 107.747 32.725C107.747 31.7535 108.093 30.9442 108.785 30.2965C109.477 29.6488 110.329 29.325 111.343 29.325C112.312 29.325 113.124 29.6382 113.778 30.264C114.432 30.8903 114.786 31.7108 114.841 32.725H112.536C112.525 32.3585 112.405 32.0589 112.176 31.8264C111.948 31.5948 111.648 31.4782 111.278 31.4782C110.896 31.4894 110.583 31.6054 110.337 31.8264C110.092 32.0477 109.975 32.3526 109.986 32.7415C109.986 33.0867 110.098 33.3727 110.321 33.5994C110.544 33.8262 110.951 34.0262 111.539 34.1985C111.887 34.3175 112.133 34.401 112.274 34.4496C112.416 34.4981 112.552 34.5442 112.683 34.587C113.424 34.8894 114.017 35.3264 114.464 35.8988C114.911 36.4707 115.135 37.1776 115.135 38.0195C115.135 39.0993 114.764 40.0004 114.023 40.7233C113.282 41.4467 112.345 41.8084 111.212 41.8084C110.089 41.8084 109.158 41.4574 108.417 40.7558C107.676 40.0543 107.306 39.1852 107.306 38.1491Z" fill="#2C539D"/>
</g>
<mask id="mask3_28_3294" style="mask-type:luminance" maskUnits="userSpaceOnUse" x="0" y="0" width="149" height="58">
<path d="M0 0H148.733V57.6964H0V0Z" fill="white"/>
</mask>
<g mask="url(#mask3_28_3294)">
<path fill-rule="evenodd" clip-rule="evenodd" d="M117.897 41.5168V31.6891H115.658V29.5354H122.375V31.6891H120.136V41.5168H117.897Z" fill="#2C539D"/>
</g>
<mask id="mask4_28_3294" style="mask-type:luminance" maskUnits="userSpaceOnUse" x="0" y="0" width="149" height="58">
<path d="M0 0H148.733V57.6964H0V0Z" fill="white"/>
</mask>
<g mask="url(#mask4_28_3294)">
<path fill-rule="evenodd" clip-rule="evenodd" d="M123.6 29.5356H125.839V41.517H123.6V29.5356Z" fill="#2C539D"/>
</g>
<mask id="mask5_28_3294" style="mask-type:luminance" maskUnits="userSpaceOnUse" x="0" y="0" width="149" height="58">
<path d="M0 0H148.733V57.6964H0V0Z" fill="white"/>
</mask>
<g mask="url(#mask5_28_3294)">
<path fill-rule="evenodd" clip-rule="evenodd" d="M139.44 32.968H136.891C136.509 32.4932 136.057 32.1262 135.534 31.8669C135.011 31.6081 134.45 31.4785 133.85 31.4785C132.662 31.4785 131.682 31.8834 130.908 32.6927C130.135 33.5026 129.748 34.4469 129.748 35.5262C129.748 36.6593 130.145 37.6338 130.941 38.4484C131.736 39.2636 132.712 39.6656 133.866 39.6549C134.422 39.6549 134.954 39.5413 135.46 39.3151C135.967 39.0883 136.405 38.7373 136.776 38.2625H139.375C138.852 39.3529 138.108 40.2162 137.144 40.8532C136.179 41.4902 135.065 41.8082 133.801 41.8082C132.025 41.8082 130.532 41.2037 129.322 39.9948C128.113 38.7859 127.508 37.2963 127.508 35.5262C127.508 33.8099 128.116 32.3475 129.331 31.1386C130.546 29.9297 132.047 29.3253 133.834 29.3253C135.087 29.3253 136.206 29.6462 137.193 30.2885C138.179 30.9308 138.928 31.8242 139.44 32.968Z" fill="#2C539D"/>
</g>
<mask id="mask6_28_3294" style="mask-type:luminance" maskUnits="userSpaceOnUse" x="0" y="0" width="149" height="58">
<path d="M0 0H148.733V57.6964H0V0Z" fill="white"/>
</mask>
<g mask="url(#mask6_28_3294)">
<path fill-rule="evenodd" clip-rule="evenodd" d="M139.994 38.1489H142.332C142.343 38.613 142.503 38.9801 142.814 39.25C143.124 39.5195 143.503 39.6544 143.95 39.6544C144.43 39.6544 144.822 39.5146 145.127 39.2335C145.432 38.9529 145.584 38.5917 145.584 38.1489C145.584 37.7173 145.443 37.342 145.159 37.0235C144.876 36.7055 144.43 36.4433 143.819 36.2384C143.198 36.0442 142.86 35.9364 142.806 35.9146C142.751 35.8932 142.696 35.866 142.642 35.8335C141.89 35.5315 141.335 35.1047 140.975 34.5547C140.615 34.0041 140.436 33.3943 140.436 32.7248C140.436 31.7533 140.782 30.9439 141.474 30.2963C142.166 29.6486 143.018 29.3248 144.032 29.3248C145.001 29.3248 145.813 29.6379 146.467 30.2637C147.121 30.89 147.475 31.7106 147.53 32.7248H145.225C145.214 32.3582 145.094 32.0587 144.865 31.8261C144.636 31.5945 144.336 31.478 143.966 31.478C143.585 31.4892 143.271 31.6052 143.026 31.8261C142.781 32.0475 142.664 32.3524 142.675 32.7413C142.675 33.0865 142.787 33.3725 143.01 33.5992C143.233 33.8259 143.639 34.0259 144.228 34.1983C144.577 34.3172 144.822 34.4008 144.963 34.4493C145.105 34.4979 145.241 34.544 145.372 34.5867C146.113 34.8892 146.707 35.3261 147.154 35.8986C147.6 36.4705 147.824 37.1774 147.824 38.0193C147.824 39.099 147.453 40.0001 146.712 40.723C145.971 41.4465 145.034 41.8082 143.901 41.8082C142.778 41.8082 141.847 41.4571 141.106 40.7556C140.365 40.054 139.994 39.185 139.994 38.1489Z" fill="#2C539D"/>
</g>
<mask id="mask7_28_3294" style="mask-type:luminance" maskUnits="userSpaceOnUse" x="0" y="0" width="149" height="58">
<path d="M0 0H148.733V57.6964H0V0Z" fill="white"/>
</mask>
<g mask="url(#mask7_28_3294)">
<path fill-rule="evenodd" clip-rule="evenodd" d="M80.762 48.8561H78.2123C77.8305 48.3813 77.3786 48.0142 76.8556 47.755C76.3326 47.4962 75.771 47.3665 75.172 47.3665C73.9844 47.3665 73.0037 47.7715 72.2297 48.5808C71.4558 49.3906 71.0691 50.3349 71.0691 51.4142C71.0691 52.5479 71.4671 53.5218 72.2626 54.3365C73.0581 55.1517 74.0329 55.5537 75.1882 55.543C75.744 55.543 76.2753 55.4294 76.7821 55.2031C77.2884 54.9764 77.7271 54.6254 78.0976 54.1506H80.6968C80.1738 55.241 79.4298 56.1042 78.4657 56.7412C77.5011 57.3782 76.3871 57.6962 75.123 57.6962C73.3468 57.6962 71.8538 57.0918 70.6447 55.8829C69.435 54.6744 68.8302 53.1844 68.8302 51.4142C68.8302 49.698 69.4375 48.2356 70.6525 47.0267C71.8675 45.8178 73.3683 45.2133 75.1553 45.2133C76.4086 45.2133 77.5281 45.5342 78.5147 46.1766C79.5004 46.8189 80.2498 47.7122 80.762 48.8561Z" fill="#2C539D"/>
</g>
<mask id="mask8_28_3294" style="mask-type:luminance" maskUnits="userSpaceOnUse" x="0" y="0" width="149" height="58">
<path d="M0 0H148.733V57.6964H0V0Z" fill="white"/>
</mask>
<g mask="url(#mask8_28_3294)">
<path fill-rule="evenodd" clip-rule="evenodd" d="M87.3318 55.543C88.5086 55.543 89.4947 55.141 90.2902 54.337C91.0857 53.5325 91.4837 52.5639 91.4837 51.4303C91.4837 50.3078 91.0857 49.3498 90.2902 48.5565C89.4947 47.7632 88.514 47.3665 87.3484 47.3665C86.1711 47.3665 85.1879 47.7632 84.3979 48.5565C83.6078 49.3498 83.2132 50.3078 83.2132 51.4303C83.2132 52.5746 83.6078 53.5461 84.3979 54.3448C85.1879 55.1439 86.1658 55.543 87.3318 55.543ZM87.3484 45.2133C89.1462 45.2133 90.6583 45.8231 91.8841 47.0427C93.1099 48.2628 93.7231 49.7412 93.7231 51.4793C93.7231 53.2169 93.107 54.6875 91.8758 55.8911C90.6441 57.0947 89.1355 57.6962 87.3484 57.6962C85.5501 57.6962 84.0356 57.0947 82.8044 55.8911C81.5727 54.6875 80.9625 53.2169 80.9738 51.4793C80.9738 49.7412 81.5835 48.2628 82.8044 47.0427C84.0244 45.8231 85.5394 45.2133 87.3484 45.2133Z" fill="#2C539D"/>
</g>
<mask id="mask9_28_3294" style="mask-type:luminance" maskUnits="userSpaceOnUse" x="0" y="0" width="149" height="58">
<path d="M0 0H148.733V57.6964H0V0Z" fill="white"/>
</mask>
<g mask="url(#mask9_28_3294)">
<path fill-rule="evenodd" clip-rule="evenodd" d="M94.687 57.4051V45.4237H97.7116L100.931 54.5683L104.133 45.4237H107.175V57.4051H104.935V48.4353L101.879 57.4051H99.9829L96.9259 48.4353V57.4051H94.687Z" fill="#2C539D"/>
</g>
<mask id="mask10_28_3294" style="mask-type:luminance" maskUnits="userSpaceOnUse" x="0" y="0" width="149" height="58">
<path d="M0 0H148.733V57.6964H0V0Z" fill="white"/>
</mask>
<g mask="url(#mask10_28_3294)">
<path fill-rule="evenodd" clip-rule="evenodd" d="M111.016 47.5771V50.7184H112.34C112.95 50.7184 113.419 50.5887 113.745 50.3295C114.072 50.0707 114.241 49.6765 114.252 49.1477C114.252 48.6297 114.086 48.2384 113.754 47.9738C113.421 47.7097 112.95 47.5771 112.34 47.5771H111.016ZM108.776 57.4048V45.4239H112.16C113.544 45.4346 114.612 45.772 115.364 46.4357C116.116 47.0994 116.492 48.0087 116.492 49.1638C116.492 50.2542 116.127 51.1446 115.396 51.8355C114.666 52.5264 113.588 52.8716 112.16 52.8716H111.016V57.4048H108.776Z" fill="#2C539D"/>
</g>
<mask id="mask11_28_3294" style="mask-type:luminance" maskUnits="userSpaceOnUse" x="0" y="0" width="149" height="58">
<path d="M0 0H148.733V57.6964H0V0Z" fill="white"/>
</mask>
<g mask="url(#mask11_28_3294)">
<path fill-rule="evenodd" clip-rule="evenodd" d="M119.52 52.1592H122.292L120.906 48.662L119.52 52.1592ZM114.965 57.4051L120.011 45.4237H121.8L126.847 57.4051H124.371L123.145 54.3129H118.666L117.441 57.4051H114.965Z" fill="#2C539D"/>
</g>
<mask id="mask12_28_3294" style="mask-type:luminance" maskUnits="userSpaceOnUse" x="0" y="0" width="149" height="58">
<path d="M0 0H148.733V57.6964H0V0Z" fill="white"/>
</mask>
<g mask="url(#mask12_28_3294)">
<path fill-rule="evenodd" clip-rule="evenodd" d="M127.443 57.405V45.4236H129.682L135.076 53.5253V45.4236H137.315V57.405H135.076L129.682 49.3057V57.405H127.443Z" fill="#2C539D"/>
</g>
<mask id="mask13_28_3294" style="mask-type:luminance" maskUnits="userSpaceOnUse" x="0" y="0" width="149" height="58">
<path d="M0 0H148.733V57.6964H0V0Z" fill="white"/>
</mask>
<g mask="url(#mask13_28_3294)">
<path fill-rule="evenodd" clip-rule="evenodd" d="M141.761 57.405V52.9849L137.789 45.4236H140.239L142.889 50.9618L145.503 45.4236H147.972L144 52.9849V57.405H141.761Z" fill="#2C539D"/>
</g>
<mask id="mask14_28_3294" style="mask-type:luminance" maskUnits="userSpaceOnUse" x="0" y="0" width="149" height="58">
<path d="M0 0H148.733V57.6964H0V0Z" fill="white"/>
</mask>
<g mask="url(#mask14_28_3294)">
<path fill-rule="evenodd" clip-rule="evenodd" d="M16.0345 56.2724L16.0384 56.2719C16.032 56.2714 16.0257 56.2709 16.0198 56.2704C16.0247 56.2709 16.0296 56.2719 16.0345 56.2724Z" fill="#FECC00"/>
</g>
<mask id="mask15_28_3294" style="mask-type:luminance" maskUnits="userSpaceOnUse" x="0" y="0" width="149" height="58">
<path d="M0 0H148.733V57.6964H0V0Z" fill="white"/>
</mask>
<g mask="url(#mask15_28_3294)">
<path fill-rule="evenodd" clip-rule="evenodd" d="M40.9656 45.782C39.7941 46.2942 38.6169 46.7793 37.4229 47.2215C35.6751 47.8687 33.8886 48.4217 32.0177 48.8126C26.6116 49.9409 19.5586 50.0749 14.2446 47.4614C12.2203 46.4661 10.448 45.0727 9.11632 43.1831C6.68625 39.7355 6.2417 35.2581 7.80571 31.3668C7.60573 28.9004 7.66651 26.3185 8.02333 23.6807C8.09734 23.1374 8.18556 22.6029 8.28016 22.0732C6.72644 23.7084 5.24673 25.629 3.97827 27.7235C0.683115 33.1646 -1.17938 39.7855 0.833096 45.6621C1.14972 46.5865 1.55702 47.4808 2.05058 48.3256C4.7169 52.8865 9.2565 55.1931 14.1995 56.0277C17.7113 56.621 21.427 56.4715 24.8187 55.8583C30.835 54.7702 36.5524 52.2189 41.3214 48.4159C43.5579 46.6326 45.3532 44.9062 47.3784 42.2116C45.6115 43.6599 43.0535 44.8693 40.9656 45.782Z" fill="#E30613"/>
</g>
<mask id="mask16_28_3294" style="mask-type:luminance" maskUnits="userSpaceOnUse" x="0" y="0" width="149" height="58">
<path d="M0 0H148.733V57.6964H0V0Z" fill="white"/>
</mask>
<g mask="url(#mask16_28_3294)">
<path fill-rule="evenodd" clip-rule="evenodd" d="M18.2865 6.87846L18.2845 6.88193C18.2885 6.87697 18.2925 6.87202 18.2965 6.86755C18.293 6.87152 18.29 6.87499 18.2865 6.87846Z" fill="#FECC00"/>
</g>
<mask id="mask17_28_3294" style="mask-type:luminance" maskUnits="userSpaceOnUse" x="0" y="0" width="149" height="58">
<path d="M0 0H148.733V57.6964H0V0Z" fill="white"/>
</mask>
<g mask="url(#mask17_28_3294)">
<path fill-rule="evenodd" clip-rule="evenodd" d="M35.7625 0.584429C34.816 0.313515 33.8426 0.133877 32.8604 0.0523113C27.5582 -0.387074 23.0534 1.98512 19.5367 5.52593C17.0385 8.04184 15.0392 11.1472 13.609 14.2549C11.0716 19.7674 9.91784 25.8731 10.3433 31.923C10.5423 34.7599 10.9466 37.2058 12.0215 40.3922C11.8313 38.1283 12.2916 35.3575 12.7283 33.1387C12.9738 31.8939 13.2444 30.6597 13.5605 29.4363C14.0232 27.6457 14.5859 25.8775 15.3313 24.133C17.486 19.094 21.4055 13.2844 26.6078 10.4582C28.5889 9.38136 30.7558 8.73709 33.0829 8.73417C37.3275 8.72932 41.2907 10.9267 43.6208 14.4219C45.7783 15.6687 47.8825 17.1937 49.8636 18.9915C50.2714 19.3615 50.6635 19.7392 51.0482 20.1189C50.5816 17.9215 49.8366 15.6206 48.8264 13.3926C46.2013 7.6044 41.7808 2.30701 35.7625 0.584429Z" fill="#FECC00"/>
</g>
<mask id="mask18_28_3294" style="mask-type:luminance" maskUnits="userSpaceOnUse" x="0" y="0" width="149" height="58">
<path d="M0 0H148.733V57.6964H0V0Z" fill="white"/>
</mask>
<g mask="url(#mask18_28_3294)">
<path fill-rule="evenodd" clip-rule="evenodd" d="M58.411 33.6468L58.4091 33.6435C58.411 33.6492 58.4139 33.655 58.4158 33.6603C58.4144 33.6559 58.4129 33.6512 58.411 33.6468Z" fill="#FECC00"/>
</g>
<mask id="mask19_28_3294" style="mask-type:luminance" maskUnits="userSpaceOnUse" x="0" y="0" width="149" height="58">
<path d="M0 0H148.733V57.6964H0V0Z" fill="white"/>
</mask>
<g mask="url(#mask19_28_3294)">
<path fill-rule="evenodd" clip-rule="evenodd" d="M39.4768 15.2796C36.8336 14.1693 34.4496 13.4172 31.0951 12.9215C33.2183 13.7804 35.5028 15.4423 37.3011 16.8342C38.3103 17.6154 39.2979 18.4141 40.2557 19.2477C41.6569 20.4683 42.993 21.7665 44.2242 23.2157C47.7816 27.4028 51.2321 33.4974 51.4169 39.3715C51.487 41.6087 51.0841 43.8144 50.0318 45.8701C48.112 49.6201 44.3375 52.1229 40.1365 52.5953C38.0363 53.9348 35.7107 55.1015 33.1943 56.0356C32.6763 56.2279 32.1587 56.4027 31.6426 56.5702C33.8315 57.1547 36.2395 57.5402 38.7024 57.6582C45.1006 57.965 51.8718 56.4638 56.1501 51.9311C56.8231 51.2179 57.4264 50.4402 57.945 49.6099C60.7441 45.1282 60.652 40.075 59.0605 35.3651C57.9293 32.0185 56.0413 28.8452 53.8936 26.1735C50.0838 21.4339 45.1133 17.647 39.4768 15.2796Z" fill="#3AA935"/>
</g>
<mask id="mask20_28_3294" style="mask-type:luminance" maskUnits="userSpaceOnUse" x="0" y="0" width="149" height="58">
<path d="M0 0H148.733V57.6964H0V0Z" fill="white"/>
</mask>
<g mask="url(#mask20_28_3294)">
<path fill-rule="evenodd" clip-rule="evenodd" d="M33.7638 41.8277C33.9848 41.5277 34.1882 41.2218 34.3794 40.9154C34.9141 40.0177 35.3415 39.0904 35.6763 38.1442C36.5129 38.2413 37.3471 38.3515 38.1799 38.4719C37.0129 39.9182 35.4993 41.0781 33.7638 41.8277ZM19.5813 37.7422C20.7729 37.6635 21.9683 37.6091 23.1676 37.579C23.5362 38.6345 24.0165 39.6555 24.6424 40.6101C25.064 41.2432 25.5487 41.8505 26.1442 42.3841C23.4328 41.6617 21.1155 39.9862 19.5813 37.7422ZM27.7832 19.9759C27.0823 20.2842 26.4804 20.7586 25.9565 21.2844C24.7807 22.4855 23.9489 23.9673 23.3475 25.5272C21.9732 25.5151 20.6082 25.4855 19.2525 25.4413C21.0503 22.485 24.1602 20.4003 27.7832 19.9759ZM38.7494 24.9704C37.6069 25.0641 36.4556 25.1466 35.2959 25.2175C34.8779 24.2256 34.3667 23.2721 33.7383 22.387C33.1384 21.5538 32.4395 20.7596 31.5508 20.1434C34.5402 20.7693 37.1031 22.5394 38.7494 24.9704ZM36.6384 33.4017C36.6663 32.9885 36.6786 32.5749 36.6786 32.1612C38.0029 32.3132 39.317 32.4923 40.6202 32.6948C40.5095 33.6241 40.286 34.5193 39.964 35.367C38.747 35.568 37.5246 35.7433 36.2983 35.8943C36.4674 35.0685 36.5781 34.2348 36.6384 33.4017ZM29.8432 36.4531C29.6977 34.8466 29.582 33.2274 29.4962 31.5971C31.5788 31.6869 33.6413 31.8393 35.6807 32.0525C35.5322 33.4653 35.1636 34.8383 34.5965 36.088C33.0193 36.2512 31.4347 36.374 29.8432 36.4531ZM30.3005 41.1616C30.175 40.1561 30.0608 38.6836 29.9589 37.6674C31.1622 37.7286 32.361 37.8135 33.556 37.9232C32.8428 39.2225 31.7665 40.4508 30.3005 41.1616ZM25.4085 37.5494C26.3922 37.5494 27.3739 37.5664 28.3527 37.5984C28.2194 38.935 28.0655 39.8439 27.892 41.1616C26.2525 40.4828 24.8757 38.9316 24.0705 37.5606C24.516 37.5538 24.962 37.5494 25.4085 37.5494ZM23.2872 35.6919C22.8451 34.3679 22.5903 32.9614 22.5344 31.533C23.3755 31.5121 24.219 31.5005 25.0659 31.5005C26.3207 31.5005 27.5685 31.5242 28.8095 31.5694C28.7228 33.2284 28.6056 34.8762 28.4566 36.5104C27.4435 36.5449 26.4275 36.5638 25.4085 36.5638C24.8061 36.5638 24.2052 36.5565 23.6048 36.5444C23.4901 36.2643 23.3843 35.9798 23.2872 35.6919ZM22.2084 31.5412C22.1879 32.9963 22.3427 34.4499 22.6677 35.8632C22.7206 36.0846 22.7775 36.3055 22.8383 36.525C21.4703 36.4857 20.1073 36.4148 18.7496 36.3128C18.0752 34.9315 17.6733 33.3949 17.612 31.7723C19.1324 31.6612 20.6655 31.5844 22.2084 31.5412ZM23.2794 25.7054C22.6358 27.4571 22.2864 29.2924 22.2187 31.1315C20.6719 31.0887 19.1358 31.0115 17.612 30.9004C17.6816 29.053 18.1933 27.3183 19.0456 25.7957C20.4469 25.7491 21.8585 25.7185 23.2794 25.7054ZM24.8463 25.6981C26.2339 25.6981 27.6122 25.7156 28.9816 25.7482C28.9683 27.545 28.9188 29.3302 28.8331 31.1019C27.5842 31.148 26.3285 31.1723 25.0659 31.1723C24.2155 31.1723 23.3681 31.1601 22.5236 31.1392C22.4991 29.3307 22.7942 27.4965 23.4348 25.7622C23.4421 25.7428 23.45 25.7234 23.4573 25.7045C23.9195 25.7006 24.3822 25.6981 24.8463 25.6981ZM28.909 20.3231C28.96 21.8063 28.9865 23.2978 28.9865 24.798C28.9865 25.0272 28.984 25.2558 28.983 25.485C27.6131 25.5175 26.2344 25.534 24.8463 25.534C24.4047 25.534 23.9646 25.5311 23.5249 25.5277C24.12 24.0086 24.9806 22.5802 26.1555 21.4878C26.7716 20.9222 27.9327 20.3231 28.909 20.3231ZM29.3212 25.4758C29.3203 25.25 29.3178 25.0243 29.3178 24.798C29.3178 23.3764 29.3418 21.7296 29.3874 20.3231C30.5103 20.3231 32.3527 21.918 33.1114 22.854C33.7006 23.5804 34.1917 24.3955 34.5857 25.2588C32.8482 25.3573 31.0931 25.4301 29.3212 25.4758ZM34.9141 26.0458C35.4807 27.5086 35.7508 29.0661 35.7542 30.612C33.6824 30.83 31.5871 30.9863 29.4707 31.0766C29.3854 29.3162 29.3359 27.5421 29.3227 25.7559C31.1984 25.8045 33.0555 25.8831 34.8926 25.9909C34.8999 26.0089 34.9073 26.0273 34.9141 26.0458ZM36.6061 30.5197C36.4674 28.9918 36.1346 27.4843 35.614 26.0346C36.9335 26.1176 38.2416 26.2157 39.539 26.3283C40.0929 27.4542 40.4659 28.6831 40.6207 29.9784C39.293 30.1847 37.9549 30.3658 36.6061 30.5197ZM30.0858 18.8627C22.6167 18.8627 16.5621 24.8602 16.5621 32.2583C16.5621 39.6565 22.6167 45.6545 30.0858 45.6545C37.554 45.6545 43.6091 39.6565 43.6091 32.2583C43.6091 24.8602 37.554 18.8627 30.0858 18.8627Z" fill="#2C539D"/>
</g>
</svg>
