<svg width="102" height="102" viewBox="0 0 102 102" fill="none" xmlns="http://www.w3.org/2000/svg">
<g clip-path="url(#clip0_5_983)">
<path fill-rule="evenodd" clip-rule="evenodd" d="M51 102C57.6974 102 64.3292 100.681 70.5169 98.1179C76.7045 95.5549 82.3267 91.7982 87.0624 87.0624C91.7982 82.3267 95.5549 76.7045 98.1179 70.5169C100.681 64.3292 102 57.6974 102 51C102 44.3026 100.681 37.6707 98.1179 31.4831C95.5549 25.2955 91.7982 19.6733 87.0624 14.9376C82.3267 10.2018 76.7045 6.44513 70.5169 3.88214C64.3292 1.31915 57.6974 -9.97993e-08 51 0C37.474 2.01554e-07 24.5019 5.3732 14.9376 14.9376C5.3732 24.5019 0 37.474 0 51C0 64.526 5.3732 77.4981 14.9376 87.0624C24.5019 96.6268 37.474 102 51 102Z" fill="#F5F6FB"/>
<path d="M46.5205 30.918C47.2003 30.8982 47.7859 31.4044 47.873 32.0859C47.9599 32.7673 47.52 33.4035 46.8613 33.5596L46.7266 33.585C44.743 33.8443 42.3706 34.204 39.6748 34.6543C37.922 34.947 36.5391 35.3143 35.5205 35.7441C34.491 36.1786 33.8974 36.6503 33.6289 37.1113C33.3808 37.5369 33.3397 38.0748 33.6904 39.0742C33.79 39.3579 34.0797 39.7275 34.626 40.1387C35.1609 40.5413 35.8943 40.9483 36.7959 41.3262C37.4755 41.6109 37.7915 42.3942 37.5146 43.0723V43.0732C37.304 43.5872 36.8102 43.9014 36.2861 43.9014C36.1583 43.9013 36.0289 43.8834 35.9023 43.8447L35.7764 43.7988C33.5064 42.847 31.937 41.6777 31.3008 40.2559L31.1865 39.9678C30.8391 38.978 30.4124 37.3455 31.3379 35.7568C31.8985 34.7941 32.8405 34.0339 34.1436 33.4297C35.4445 32.8265 37.1347 32.3643 39.2402 32.0127C41.9627 31.5581 44.3667 31.1941 46.3838 30.9297L46.5205 30.918Z" fill="#83898D" stroke="#83898D"/>
<path d="M68.7266 25.5732C71.2472 23.7973 74.0389 23.1318 76.7852 23.6943C80.0493 24.3623 82.424 26.5592 83.5684 28.4014C84.5937 30.0521 84.7586 32.1551 84.1309 34.4365C83.2203 37.7478 80.7756 41.2618 77.248 44.6221C73.7207 47.9822 69.077 51.2201 63.7002 53.9834C63.6941 53.9893 63.6854 53.9983 63.6738 54.0107C63.6332 54.0543 63.5774 54.1214 63.5059 54.2129C63.3636 54.3949 63.1789 54.6509 62.96 54.9678C62.5228 55.6005 61.9652 56.4513 61.3613 57.3818C60.1588 59.2349 58.773 61.407 57.8379 62.7373C56.7052 64.3487 55.6484 65.573 54.6309 66.417C53.6755 67.2094 52.7311 67.6858 51.7734 67.8105L51.582 67.8311C50.1111 67.9506 49.0094 67.2251 48.2998 66.5732L48.0195 66.3008C46.9163 65.1702 46.8164 63.6993 46.8096 62.583V61.7812C46.8086 61.6875 46.8052 61.5959 46.8018 61.5078C46.5701 61.5938 46.2929 61.7078 45.9727 61.8467C45.3539 62.1149 44.6028 62.4672 43.7646 62.8789C42.0886 63.7022 40.0783 64.7537 38.1064 65.8135C34.1489 67.9405 30.3935 70.0781 29.7988 70.4824C28.7041 71.227 27.3796 71.5 26.2617 71.5C26.062 71.5 25.3117 71.5009 24.4814 71.2266C23.6449 70.9501 22.6881 70.3798 22.1553 69.2207V69.2197C21.7037 68.2363 21.7279 67.4246 22.0176 66.7539C22.2927 66.1169 22.7867 65.6632 23.1309 65.3496C23.3939 65.11 23.5638 64.9482 23.6729 64.8018C23.7621 64.6819 23.7899 64.5977 23.7939 64.5146C23.7856 64.498 23.7586 64.4464 23.6816 64.3545C23.5657 64.2159 23.3893 64.0494 23.1641 63.8633C22.7151 63.4922 22.1396 63.0963 21.6328 62.748C20.6474 62.0705 19.4699 61.2641 18.6348 60.3057C17.7872 59.3328 17.2313 58.1301 17.6328 56.6953L17.7236 56.3926C18.1978 54.9068 18.9998 53.8155 20.1582 53.2412C21.3062 52.6725 22.5797 52.701 23.835 52.9717C25.0869 53.2417 26.3897 53.7682 27.6201 54.2646C28.5164 54.6262 29.3421 54.9579 30.0898 55.1797C32.1953 53.691 35.4602 50.4132 39.2646 46.584C40.3941 45.447 41.5628 44.2712 42.75 43.0938C44.6638 41.1965 46.2377 39.6826 47.7012 38.3311C50.9908 35.2937 53.7163 33.1006 56.0283 31.6436H56.0293C56.3826 31.4211 57.7097 30.5664 58.5957 30.0771H58.5967C59.2101 29.7393 59.9764 29.9674 60.3096 30.5801C60.6415 31.1909 60.421 31.9587 59.8105 32.2959C59.0023 32.742 57.7477 33.5504 57.3691 33.7891C55.2109 35.149 52.6084 37.2395 49.4072 40.1953C47.9685 41.5239 46.4163 43.0167 44.5215 44.8955C43.3396 46.0673 42.1763 47.2384 41.0488 48.373C38.9825 50.4528 36.7248 52.6863 34.8281 54.4561C33.8804 55.3404 33.0179 56.1138 32.3115 56.6953C31.9586 56.9859 31.6389 57.2333 31.3643 57.4238C31.0994 57.6076 30.8431 57.762 30.623 57.8398C30.3158 57.9485 29.9586 57.8951 29.6709 57.8252C29.3588 57.7493 29.0111 57.6227 28.667 57.4824C28.3208 57.3413 27.9602 57.1783 27.6211 57.0254C27.2775 56.8705 26.9584 56.7264 26.6807 56.6143C25.5866 56.1728 24.5172 55.7428 23.5508 55.5039C22.6314 55.2766 21.9045 55.2502 21.377 55.4658L21.2734 55.5117C20.7829 55.755 20.3599 56.3074 20.0596 57.3809C19.9472 57.7828 20.1419 58.2663 20.7578 58.8867C21.3551 59.4882 22.207 60.0751 23.0566 60.6592C23.8621 61.2129 24.664 61.7628 25.2588 62.3496C25.8571 62.9399 26.317 63.6363 26.3164 64.4961L26.3057 64.752C26.1987 65.9971 25.3354 66.7603 24.8242 67.2256C24.6378 67.3953 24.5075 67.5199 24.415 67.6211C24.3215 67.7235 24.2938 67.7749 24.2861 67.7939C24.285 67.7958 24.2834 67.7944 24.2871 67.8125C24.2947 67.8496 24.319 67.9192 24.3906 68.0537L24.4521 68.1514C24.601 68.3606 24.9095 68.6433 25.3877 68.8174L25.6416 68.8945L25.8857 68.9473C26.501 69.0591 27.4201 69.0659 28.3809 68.4121C28.8407 68.099 33.2116 65.4501 37.7041 63.0947C42.3729 60.6468 44.8491 59.5085 46.2275 59.0488C46.9087 58.8217 47.3894 58.736 47.7607 58.7832C48.1912 58.8379 48.4114 59.0647 48.5469 59.2012C48.9625 59.62 49.1543 60.1345 49.2451 60.6406C49.3343 61.1377 49.3317 61.6674 49.3311 62.1328C49.3302 63.1553 49.3913 63.9552 49.8682 64.5127C50.4562 65.2001 50.9354 65.3438 51.3799 65.3086L51.5615 65.2812C52.0031 65.1896 52.5578 64.8875 53.2285 64.291C53.9849 63.6182 54.837 62.6177 55.7783 61.2783C56.6873 59.9849 58.094 57.7746 59.4053 55.7979C60.0566 54.816 60.6839 53.8938 61.2051 53.1865C61.4652 52.8335 61.7038 52.5263 61.9102 52.29C62.0132 52.1721 62.1131 52.066 62.207 51.9785C62.2956 51.896 62.4023 51.8077 62.5186 51.748C74.8286 45.4298 80.4666 38.2517 81.7012 33.7627C82.1634 32.0819 82.0315 30.7111 81.4297 29.7422C80.5675 28.3551 78.7543 26.6821 76.2822 26.1758H76.2812C74.2325 25.7561 72.1895 26.2296 70.1865 27.6377H70.1875C70.1862 27.6387 70.184 27.6406 70.1816 27.6426C70.1769 27.6466 70.1701 27.6518 70.1621 27.6592C70.1458 27.6743 70.1251 27.6946 70.0996 27.7207C70.0482 27.7733 69.9837 27.8436 69.9062 27.9316C69.7513 28.1078 69.5536 28.3451 69.3193 28.6357C68.8514 29.2163 68.2471 29.9982 67.5596 30.9072C66.5285 32.2704 65.3146 33.9139 64.1045 35.584L62.9023 37.2539C62.4957 37.8217 61.7064 37.9516 61.1406 37.541C60.577 37.1317 60.45 36.3413 60.8555 35.7754C61.639 34.6806 63.3298 32.3325 64.9502 30.1689C65.76 29.0877 66.555 28.0488 67.2119 27.2344C67.54 26.8276 67.8371 26.4729 68.0859 26.1953C68.3238 25.93 68.549 25.6995 68.7266 25.5742V25.5732Z" fill="#83898D" stroke="#83898D"/>
</g>
<defs>
<clipPath id="clip0_5_983">
<rect width="102" height="102" fill="white"/>
</clipPath>
</defs>
</svg>
