<svg width="102" height="102" viewBox="0 0 102 102" fill="none" xmlns="http://www.w3.org/2000/svg">
<g clip-path="url(#clip0_5_982)">
<path fill-rule="evenodd" clip-rule="evenodd" d="M51 102C57.6974 102 64.3292 100.681 70.5169 98.1179C76.7045 95.5549 82.3267 91.7982 87.0624 87.0624C91.7982 82.3267 95.5549 76.7045 98.1179 70.5169C100.681 64.3292 102 57.6974 102 51C102 44.3026 100.681 37.6707 98.1179 31.4831C95.5549 25.2955 91.7982 19.6733 87.0624 14.9376C82.3267 10.2018 76.7045 6.44513 70.5169 3.88214C64.3292 1.31915 57.6974 -9.97993e-08 51 0C37.474 2.01554e-07 24.5019 5.3732 14.9376 14.9376C5.3732 24.5019 0 37.474 0 51C0 64.526 5.3732 77.4981 14.9376 87.0624C24.5019 96.6268 37.474 102 51 102Z" fill="#F5F6FB"/>
<path d="M77.5625 67.3624C77.5625 69.335 76.7789 71.2267 75.3841 72.6215C73.9893 74.0163 72.0975 74.7999 70.125 74.7999C68.1525 74.7999 66.2607 74.0163 64.8659 72.6215C63.4711 71.2267 62.6875 69.335 62.6875 67.3624C62.6875 65.3899 63.4711 63.4981 64.8659 62.1033C66.2607 60.7085 68.1525 59.9249 70.125 59.9249C72.0975 59.9249 73.9893 60.7085 75.3841 62.1033C76.7789 63.4981 77.5625 65.3899 77.5625 67.3624ZM47.8125 67.3624C47.8125 69.335 47.0289 71.2267 45.6341 72.6215C44.2393 74.0163 42.3475 74.7999 40.375 74.7999C38.4025 74.7999 36.5107 74.0163 35.1159 72.6215C33.7211 71.2267 32.9375 69.335 32.9375 67.3624C32.9375 65.3899 33.7211 63.4981 35.1159 62.1033C36.5107 60.7085 38.4025 59.9249 40.375 59.9249C42.3475 59.9249 44.2393 60.7085 45.6341 62.1033C47.0289 63.4981 47.8125 65.3899 47.8125 67.3624Z" stroke="#83898D" stroke-width="3.5" stroke-linecap="round" stroke-linejoin="round"/>
<path d="M62.6875 67.3619H47.8125M25.5 27.1994H55.25C59.4566 27.1994 61.56 27.1994 62.866 28.5084C64.175 29.8115 64.175 31.9148 64.175 36.1244V61.4119M65.6625 34.6369H71.0205C73.4897 34.6369 74.7243 34.6369 75.7477 35.217C76.7711 35.7942 77.4048 36.8533 78.6751 38.9715L83.7297 47.3907C84.3604 48.4439 84.6757 48.9734 84.8393 49.5565C85 50.1426 85 50.7555 85 51.9841V59.9244C85 62.706 85 64.0954 84.402 65.1307C84.0104 65.809 83.4471 66.3723 82.7687 66.7639C81.7334 67.3619 80.3441 67.3619 77.5625 67.3619M25.5 53.9744V59.9244C25.5 62.706 25.5 64.0954 26.098 65.1307C26.4896 65.809 27.0529 66.3723 27.7312 66.7639C28.7665 67.3619 30.1559 67.3619 32.9375 67.3619M25.5 36.1244H43.35M25.5 45.0494H37.4" stroke="#83898D" stroke-width="3.5" stroke-linecap="round" stroke-linejoin="round"/>
</g>
<defs>
<clipPath id="clip0_5_982">
<rect width="102" height="102" fill="white"/>
</clipPath>
</defs>
</svg>
