<svg width="102" height="102" viewBox="0 0 102 102" fill="none" xmlns="http://www.w3.org/2000/svg">
<g clip-path="url(#clip0_5_985)">
<path fill-rule="evenodd" clip-rule="evenodd" d="M51 102C57.6974 102 64.3292 100.681 70.5169 98.1179C76.7045 95.5549 82.3267 91.7982 87.0624 87.0624C91.7982 82.3267 95.5549 76.7045 98.1179 70.5169C100.681 64.3292 102 57.6974 102 51C102 44.3026 100.681 37.6707 98.1179 31.4831C95.5549 25.2955 91.7982 19.6733 87.0624 14.9376C82.3267 10.2018 76.7045 6.44513 70.5169 3.88214C64.3292 1.31915 57.6974 -9.97993e-08 51 0C37.474 2.01554e-07 24.5019 5.3732 14.9376 14.9376C5.3732 24.5019 0 37.474 0 51C0 64.526 5.3732 77.4981 14.9376 87.0624C24.5019 96.6268 37.474 102 51 102Z" fill="#F5F6FB"/>
<path d="M59.9589 41.5L60.1532 41.5059C61.1206 41.5609 62.0179 41.9808 62.6971 42.6943C63.4209 43.4549 63.8144 44.4618 63.8085 45.5234C63.7961 47.7034 62.0803 49.4998 59.9393 49.5H59.9159C58.1773 49.4894 56.6608 48.2701 56.2069 46.5596C56.0571 45.9956 56.3714 45.3876 56.951 45.2217C57.5392 45.053 58.1219 45.4182 58.2733 45.9883C58.482 46.7749 59.1716 47.3097 59.9286 47.3145H59.9393C60.8697 47.3144 61.6621 46.5253 61.6678 45.5107L61.66 45.3281C61.6229 44.9067 61.4486 44.5189 61.162 44.2178C60.876 43.9173 60.5114 43.7366 60.119 43.6943L59.9491 43.6855H44.6649L44.496 43.6943C44.1062 43.7364 43.7411 43.917 43.455 44.2178C43.1277 44.5619 42.9464 45.0193 42.9491 45.5107C42.9548 46.525 43.7475 47.3143 44.6776 47.3145H44.6884C45.4454 47.3097 46.1349 46.7749 46.3436 45.9883C46.4951 45.4179 47.0774 45.054 47.6649 45.2217H47.6659C48.2453 45.3878 48.5596 45.9954 48.41 46.5596C47.9844 48.1634 46.6246 49.3356 45.0233 49.4844L44.7001 49.5C42.5412 49.511 40.8208 47.7107 40.8085 45.5234C40.8028 44.5282 41.1481 43.581 41.788 42.8398L41.9198 42.6943C42.644 41.9334 43.6167 41.5063 44.6552 41.5H59.9589Z" fill="#83898D" stroke="#83898D"/>
<path d="M61.7469 53.5C62.2769 53.5002 62.8084 53.8946 62.8085 54.5C62.8085 55.1055 62.2765 55.4998 61.7469 55.5H42.87C42.3399 55.4999 41.8085 55.1053 41.8085 54.5C41.8085 53.8946 42.34 53.5001 42.87 53.5H61.7469Z" fill="#83898D" stroke="#83898D"/>
<path d="M38.1083 41.5C38.6716 41.5002 39.2255 41.9208 39.2255 42.5527C39.2253 43.1844 38.6715 43.6043 38.1083 43.6045H36.8651V52.8174C36.8651 53.491 37.3722 53.9746 37.8544 53.9746C38.684 53.9746 39.4349 54.2839 39.9139 54.9014C40.4739 55.623 40.5136 56.5819 40.1385 57.4824L32.1102 76.7627C31.9957 77.0374 32.0499 77.1688 32.0878 77.2178H32.0887C32.1404 77.2845 32.3053 77.3955 32.6766 77.3955H38.2255C38.6377 77.3955 39.0709 77.2406 39.4237 76.9814C39.7787 76.7207 40.0113 76.3856 40.0829 76.0645L43.5975 60.2637C43.7314 59.6615 44.3447 59.3462 44.9003 59.4463H44.8993C45.427 59.54 45.8656 60.0065 45.8036 60.5801L45.7841 60.6963L42.2694 76.4971C41.8903 78.2002 40.063 79.5 38.2255 79.5H32.6766C31.7132 79.5 30.8194 79.1509 30.2841 78.4609C29.7396 77.7594 29.6738 76.8453 30.0292 75.9922L38.0585 56.7119C38.2051 56.3596 38.137 56.1794 38.1102 56.1445H38.1093C38.103 56.1365 38.0593 56.0791 37.8544 56.0791C36.07 56.0791 34.6307 54.61 34.6307 52.8174V42.5527C34.6307 41.9208 35.1845 41.5001 35.7479 41.5H38.1083Z" fill="#83898D" stroke="#83898D"/>
<path d="M57.7059 20.5C58.5729 20.5 59.3741 20.717 59.9745 21.1025C60.5395 21.4654 60.9686 22.0122 61.0145 22.6865C61.049 22.7154 61.106 22.7563 61.1923 22.7988C61.4086 22.9055 61.7541 23.0039 62.2079 23.0039H65.3593C67.1797 23.0041 68.6726 24.4653 68.6727 26.2773V52.7939C68.6727 54.5825 67.2652 56.0672 65.4969 56.0674C65.2463 56.0674 65.1596 56.1455 65.1298 56.1875C65.0887 56.2456 65.0344 56.4224 65.1503 56.7363L72.618 76.9971C72.93 77.843 72.8652 78.7434 72.37 79.4404C71.8754 80.1355 71.0438 80.5 70.1376 80.5H65.078C63.3544 80.5 61.6815 79.1689 61.3221 77.4941L57.8417 61.2715C57.7178 60.6946 58.0933 60.1386 58.662 60.0195C59.2296 59.9003 59.7977 60.2574 59.9208 60.832L63.4012 77.0547C63.4733 77.3907 63.6952 77.7288 64.0175 77.9863C64.3395 78.2437 64.7239 78.3906 65.078 78.3906H70.1376C70.4517 78.3906 70.5876 78.2894 70.6337 78.2246C70.678 78.1622 70.727 78.0081 70.6219 77.7227L63.1542 57.4609C62.855 56.6495 62.8861 55.7909 63.3046 55.1055L63.3934 54.9707C63.8696 54.3008 64.6361 53.958 65.4969 53.958C66.043 53.958 66.5477 53.4694 66.5477 52.7939V26.2773C66.5476 25.6426 66.0208 25.1133 65.3593 25.1133H62.2079C61.3409 25.1133 60.5398 24.8962 59.9393 24.5107C59.374 24.1477 58.9439 23.6006 58.8983 22.9258C58.8638 22.897 58.8071 22.8566 58.7216 22.8145C58.5052 22.7078 58.1598 22.6094 57.7059 22.6094H45.7753C45.3215 22.6094 44.976 22.7078 44.7596 22.8145C44.6733 22.8571 44.6163 22.8979 44.5819 22.9268C44.5359 23.6011 44.1069 24.1479 43.5419 24.5107C42.9415 24.8962 42.1402 25.1133 41.2733 25.1133H38.1219C37.4605 25.1134 36.9346 25.6426 36.9344 26.2773V34.4248C36.9343 35.014 36.4511 35.4795 35.871 35.4795C35.2907 35.4794 34.8086 35.0138 34.8085 34.4248V26.2773C34.8086 24.4651 36.3011 23.004 38.1219 23.0039H41.2733C41.7271 23.0039 42.0726 22.9055 42.2889 22.7988C42.3747 22.7565 42.4312 22.7153 42.4657 22.6865C42.5115 22.0121 42.9417 21.4654 43.5067 21.1025C44.1071 20.7171 44.9083 20.5 45.7753 20.5H57.7059Z" fill="#83898D" stroke="#83898D"/>
</g>
<defs>
<clipPath id="clip0_5_985">
<rect width="102" height="102" fill="white"/>
</clipPath>
</defs>
</svg>
