<svg width="102" height="102" viewBox="0 0 102 102" fill="none" xmlns="http://www.w3.org/2000/svg">
<g clip-path="url(#clip0_5_984)">
<path fill-rule="evenodd" clip-rule="evenodd" d="M51 102C57.6974 102 64.3292 100.681 70.5169 98.1179C76.7045 95.5549 82.3267 91.7982 87.0624 87.0624C91.7982 82.3267 95.5549 76.7045 98.1179 70.5169C100.681 64.3292 102 57.6974 102 51C102 44.3026 100.681 37.6707 98.1179 31.4831C95.5549 25.2955 91.7982 19.6733 87.0624 14.9376C82.3267 10.2018 76.7045 6.44513 70.5169 3.88214C64.3292 1.31915 57.6974 -9.97993e-08 51 0C37.474 2.01554e-07 24.5019 5.3732 14.9376 14.9376C5.3732 24.5019 0 37.474 0 51C0 64.526 5.3732 77.4981 14.9376 87.0624C24.5019 96.6268 37.474 102 51 102Z" fill="#F5F6FB"/>
<path d="M56.5898 48.0107C57.2683 48.0108 57.7912 48.5744 57.792 49.2354L57.7861 49.3584C57.7266 49.9651 57.2287 50.4614 56.5918 50.4619L50.4141 50.4678H50.4131C49.7342 50.4678 49.2115 49.9039 49.2109 49.2432C49.2105 48.582 49.7327 48.0172 50.4121 48.0166L56.5889 48.0107H56.5898Z" fill="#83898D" stroke="#83898D"/>
<path d="M45.9199 24.5C46.9082 24.5002 47.6836 25.3263 47.6836 26.3066V30.9521C47.6834 31.6131 47.1609 32.1776 46.4814 32.1777C45.802 32.1777 45.2794 31.6133 45.2793 30.9521V26.9521H40.1016V34.9521H54.9053C56.3307 34.9524 57.8115 35.9972 58.333 37.3447L62.1357 47.1748C62.2109 47.3692 62.3887 47.5872 62.6338 47.7588C62.8797 47.9309 63.1363 48.0165 63.3281 48.0166H85.2305C86.0731 48.0166 86.8308 48.3754 87.2129 49.0879L87.2783 49.2227C87.5772 49.9007 87.4578 50.6815 87.0459 51.3633L76.1953 69.3125C75.8343 69.9094 75.2626 70.4185 74.6348 70.7783C74.0074 71.1379 73.2831 71.3721 72.5947 71.3721H30.4766C29.0404 71.3721 27.5687 70.3091 27.0723 68.9404L20.6738 51.2988C20.3918 50.5208 20.4466 49.6856 20.8867 49.0293C21.3284 48.3702 22.0752 48.0166 22.8945 48.0166H26.2637C26.9432 48.0166 27.4658 48.581 27.4658 49.2422C27.4658 49.9036 26.9431 50.4678 26.2637 50.4678H22.9355L29.3271 68.0889L29.3574 68.1621C29.4397 68.334 29.5957 68.5167 29.8027 68.665C30.0401 68.835 30.2885 68.9198 30.4756 68.9199H72.5947C72.8256 68.9199 73.1437 68.8261 73.459 68.6455C73.7735 68.4653 74.0231 68.2345 74.1494 68.0254L84.7627 50.4678H63.3281C61.9027 50.4676 60.4219 49.4228 59.9004 48.0752L56.0967 38.2451C56.0215 38.0507 55.8446 37.8326 55.5996 37.6611C55.3538 37.4891 55.0973 37.4035 54.9053 37.4033H33.0029C32.7529 37.4034 32.5205 37.6199 32.5205 37.9199V41.4033C32.5205 42.0644 31.9981 42.6289 31.3184 42.6289C30.6388 42.6289 30.1162 42.0646 30.1162 41.4033V37.9199C30.1162 36.2988 31.3953 34.9522 33.0029 34.9521H37.6982V26.3066C37.6982 25.3261 38.4736 24.5 39.4619 24.5H45.9199Z" fill="#83898D" stroke="#83898D"/>
<path d="M45.3887 47.8682L45.6582 47.8818C46.9898 48.0138 48.0993 49.1099 48.2715 50.4707L48.2852 50.6104C48.3033 50.8343 48.3237 51.2963 48.2559 51.8545C48.166 52.5936 47.9148 53.5512 47.2461 54.3389C46.4689 55.2538 45.3622 55.6942 44.0264 55.6943C41.7548 55.6943 39.9355 53.789 39.9355 51.4814C39.9356 50.9511 40.272 50.4838 40.7559 50.3193H36.4043C36.8881 50.4838 37.2246 50.952 37.2246 51.4824C37.2244 53.7896 35.4052 55.6943 33.1338 55.6943C31.7979 55.6943 30.6913 55.2544 29.9141 54.3389C29.2454 53.5512 28.9941 52.5935 28.9043 51.8545C28.8139 51.1105 28.8804 50.5373 28.8887 50.4717L28.9355 50.2031C29.2294 48.8804 30.4127 47.8682 31.7715 47.8682H45.3887ZM31.7715 50.3193C31.6846 50.3193 31.5663 50.3618 31.457 50.4609C31.3484 50.5595 31.2865 50.6813 31.2734 50.7852C31.27 50.8205 31.2409 51.1282 31.2832 51.5176C31.3304 51.9523 31.4584 52.4153 31.7334 52.7373C32.0005 53.0493 32.4213 53.2431 33.1338 53.2432C34.0476 53.2432 34.8201 52.4687 34.8203 51.4824C34.8203 50.9521 35.1569 50.4838 35.6406 50.3193H31.7715ZM41.5195 50.3193C42.0031 50.4839 42.3398 50.9513 42.3398 51.4814C42.3398 52.4679 43.1124 53.2422 44.0264 53.2422C44.7414 53.2421 45.162 53.0476 45.4287 52.7334C45.7009 52.4128 45.8287 51.9509 45.876 51.5166C45.9185 51.1257 45.8898 50.8174 45.8867 50.7852L45.8682 50.7041C45.84 50.6216 45.7844 50.5348 45.7031 50.4609C45.5941 50.362 45.4757 50.3195 45.3887 50.3193H41.5195Z" fill="#83898D" stroke="#83898D"/>
</g>
<defs>
<clipPath id="clip0_5_984">
<rect width="102" height="102" fill="white"/>
</clipPath>
</defs>
</svg>
